<svg xmlns="http://www.w3.org/2000/svg" xmlns:xlink="http://www.w3.org/1999/xlink" viewBox="0 0 1200 340" width="1200" height="340" role="img" aria-label="Andres del Castillo. Population genetics, scientific software, machine learning">
<defs>
<linearGradient id="sg" gradientUnits="userSpaceOnUse" x1="70" y1="0" x2="1112" y2="0"><stop offset="0" stop-color="#b45309"/><stop offset="0.55" stop-color="#5f8f6a"/><stop offset="1" stop-color="#0f766e"/></linearGradient>
<radialGradient id="halo" cx="0.17" cy="0.30" r="0.6"><stop offset="0" stop-color="#e9eff5" stop-opacity="0.7"/><stop offset="1" stop-color="#e9eff5" stop-opacity="0"/></radialGradient>
<filter id="soft" x="-60%" y="-60%" width="220%" height="220%"><feGaussianBlur stdDeviation="2.4"/></filter>
<path id="spine" d="M 70.0 284.0 L 82.2 284.0 L 85.6 274.0 L 89.0 284.0 L 113.5 284.0 L 116.9 268.0 L 120.3 284.0 L 144.7 284.0 L 148.1 276.0 L 151.5 284.0 L 176.0 284.0 L 179.4 270.0 L 182.8 284.0 L 207.3 284.0 L 210.7 275.0 L 214.1 284.0 L 238.5 284.0 L 241.9 267.0 L 245.3 284.0 L 269.8 284.0 L 273.2 273.0 L 276.6 284.0 L 288.8 284.0 L 288.8 284.0 C 289.5 283.6 291.5 282.3 292.8 281.5 C 294.2 280.6 295.5 279.8 296.8 279.0 C 298.2 278.3 299.5 277.5 300.8 276.7 C 302.2 276.0 303.5 275.3 304.8 274.6 C 306.2 273.9 307.5 273.2 308.8 272.5 C 310.2 271.8 311.5 271.1 312.8 270.5 C 314.2 269.9 315.5 269.2 316.8 268.6 C 318.2 268.0 319.5 267.4 320.8 266.8 C 322.2 266.3 323.5 265.7 324.8 265.1 C 326.2 264.6 327.5 264.0 328.8 263.5 C 330.2 263.0 331.5 262.5 332.8 262.0 C 334.2 261.5 335.5 261.0 336.8 260.5 C 338.2 260.0 339.5 259.6 340.8 259.1 C 342.2 258.7 343.5 258.2 344.8 257.8 C 346.2 257.4 347.5 256.9 348.8 256.5 C 350.2 256.1 351.5 255.7 352.8 255.3 C 354.2 254.9 355.5 254.6 356.8 254.2 C 358.2 253.8 359.5 253.5 360.8 253.1 C 362.2 252.8 363.5 252.4 364.8 252.1 C 366.2 251.7 367.5 251.4 368.8 251.1 C 370.2 250.8 371.5 250.5 372.8 250.2 C 374.2 249.9 375.5 249.6 376.8 249.3 C 378.2 249.0 379.5 248.7 380.8 248.4 C 382.2 248.2 383.5 247.9 384.8 247.6 C 386.2 247.4 387.5 247.1 388.8 246.9 C 390.2 246.6 391.5 246.4 392.8 246.1 C 394.2 245.9 395.5 245.7 396.8 245.5 C 398.2 245.2 399.5 245.0 400.8 244.8 C 402.2 244.6 403.5 244.4 404.8 244.2 C 406.2 244.0 407.5 243.8 408.8 243.6 C 410.2 243.4 411.5 243.2 412.8 243.0 C 414.2 242.8 415.5 242.6 416.8 242.5 C 418.2 242.3 419.5 242.1 420.8 242.0 C 422.2 241.8 423.5 241.6 424.8 241.5 C 426.2 241.3 427.5 241.2 428.8 241.0 C 430.2 240.9 431.5 240.7 432.8 240.6 C 434.2 240.4 435.5 240.3 436.8 240.2 C 438.2 240.0 439.5 239.9 440.8 239.8 C 442.2 239.6 443.5 239.5 444.8 239.4 C 446.2 239.3 447.5 239.1 448.8 239.0 C 450.2 238.9 451.5 238.8 452.8 238.7 C 454.2 238.6 455.5 238.5 456.8 238.3 C 458.2 238.2 459.5 238.1 460.8 238.0 C 462.2 237.9 463.5 237.8 464.8 237.7 C 466.2 237.6 467.5 237.6 468.8 237.5 C 470.2 237.4 471.5 237.3 472.8 237.2 C 474.2 237.1 475.5 237.0 476.8 236.9 C 478.2 236.9 479.5 236.8 480.8 236.7 C 482.2 236.6 483.5 236.5 484.8 236.5 C 486.2 236.4 487.5 236.3 488.8 236.3 C 490.2 236.2 491.5 236.1 492.8 236.0 C 494.2 236.0 495.5 235.9 496.8 235.8 C 498.2 235.8 499.5 235.7 500.8 235.7 C 502.2 235.6 503.5 235.5 504.8 235.5 C 506.2 235.4 507.5 235.4 508.8 235.3 C 510.2 235.3 511.5 235.2 512.8 235.1 C 514.2 235.1 515.5 235.0 516.8 235.0 C 518.2 234.9 519.5 234.9 520.8 234.8 C 522.2 234.8 523.5 235.2 524.8 234.7 C 526.2 234.2 527.5 232.5 528.8 232.0 C 530.2 231.5 531.5 232.0 532.8 232.0 C 534.2 232.0 535.5 232.0 536.8 232.0 C 538.2 232.0 539.5 232.0 540.8 232.0 C 542.2 232.0 543.5 232.0 544.8 232.0 C 546.2 232.0 547.5 232.0 548.8 232.0 C 550.2 232.0 551.5 232.0 552.8 232.0 C 554.2 232.0 555.5 232.0 556.8 232.0 C 558.2 232.0 559.5 232.0 560.8 232.0 C 562.2 232.0 563.5 232.0 564.8 232.0 C 566.2 232.0 567.5 232.0 568.8 232.0 C 570.2 232.0 571.5 232.0 572.8 232.0 C 574.2 232.0 575.5 232.0 576.8 232.0 C 578.2 232.0 579.5 232.0 580.8 232.0 C 582.2 232.0 583.5 232.0 584.8 232.0 C 586.2 232.0 587.5 232.0 588.8 232.0 C 590.2 232.0 591.5 232.0 592.8 232.0 C 594.2 232.0 595.5 232.0 596.8 232.0 C 598.2 232.0 599.5 232.0 600.8 232.0 C 602.2 232.0 603.5 232.0 604.8 232.0 C 606.2 232.0 607.5 232.0 608.8 232.0 C 610.2 232.0 611.5 232.0 612.8 232.0 C 614.2 232.0 615.5 232.0 616.8 232.0 C 618.2 232.0 619.5 232.0 620.8 232.0 C 622.2 232.0 623.5 232.0 624.8 232.0 C 626.2 232.0 627.5 232.0 628.8 232.0 C 630.2 232.0 631.5 232.0 632.8 232.0 C 634.2 232.0 635.5 232.0 636.8 232.0 C 638.2 232.0 639.5 232.0 640.8 232.0 C 642.2 232.0 643.5 232.0 644.8 232.0 C 646.2 232.0 647.5 232.0 648.8 232.0 C 650.2 232.0 651.5 232.0 652.8 232.0 C 654.2 232.0 655.5 232.0 656.8 232.0 C 658.2 232.0 659.5 232.0 660.8 232.0 C 662.2 232.0 663.5 232.0 664.8 232.0 C 666.2 232.0 667.5 232.0 668.8 232.0 C 670.2 232.0 671.5 232.0 672.8 232.0 C 674.2 232.0 675.5 232.0 676.8 232.0 C 678.2 232.0 679.5 232.0 680.8 231.9 C 682.2 231.9 683.5 231.9 684.8 231.9 C 686.2 231.8 687.5 231.8 688.8 231.7 C 690.2 231.7 691.5 231.6 692.8 231.6 C 694.2 231.5 695.5 231.4 696.8 231.4 C 698.2 231.3 699.5 231.2 700.8 231.1 C 702.2 231.1 703.5 231.0 704.8 230.9 C 706.2 230.8 707.5 230.7 708.8 230.6 C 710.2 230.4 711.5 230.3 712.8 230.2 C 714.2 230.1 715.5 230.0 716.8 229.8 C 718.2 229.7 719.5 229.6 720.8 229.4 C 722.2 229.3 723.5 229.1 724.8 229.0 C 726.2 228.8 727.5 228.7 728.8 228.5 C 730.2 228.3 731.5 228.2 732.8 228.0 C 734.2 227.8 735.5 227.6 736.8 227.5 C 738.2 227.3 739.5 227.1 740.8 226.9 C 742.2 226.7 743.5 226.5 744.8 226.3 C 746.2 226.1 747.5 225.9 748.8 225.7 C 750.2 225.5 751.5 225.3 752.8 225.0 C 754.2 224.8 755.5 224.6 756.8 224.4 C 758.2 224.1 759.5 223.9 760.8 223.7 C 762.2 223.4 763.5 223.2 764.8 222.9 C 766.2 222.7 767.5 222.4 768.8 222.2 C 770.2 221.9 771.5 221.7 772.8 221.4 C 774.2 221.2 775.5 220.9 776.8 220.6 C 778.2 220.4 779.5 220.1 780.8 219.8 C 782.2 219.5 783.5 219.2 784.8 219.0 C 786.2 218.7 787.5 218.4 788.8 218.1 C 790.2 217.8 791.5 217.5 792.8 217.2 C 794.2 216.9 795.5 216.6 796.8 216.3 C 798.2 216.0 799.5 215.7 800.8 215.4 C 802.2 215.1 803.5 214.8 804.8 214.5 C 806.2 214.2 807.5 213.9 808.8 213.5 C 810.2 213.2 811.5 212.9 812.8 212.6 C 814.2 212.2 815.5 211.9 816.8 211.6 C 818.2 211.3 819.5 210.9 820.8 210.6 C 822.2 210.3 823.5 209.9 824.8 209.6 C 826.2 209.2 827.5 208.9 828.8 208.6 C 830.2 208.2 831.5 207.9 832.8 207.5 C 834.2 207.2 835.5 206.8 836.8 206.5 C 838.2 206.1 839.5 205.8 840.8 205.4 C 842.2 205.1 843.5 204.7 844.8 204.4 C 846.2 204.0 847.5 203.7 848.8 203.3 C 850.2 202.9 851.5 202.6 852.8 202.2 C 854.2 201.9 855.5 201.5 856.8 201.1 C 858.2 200.8 859.5 200.4 860.8 200.0 C 862.2 199.7 863.5 199.3 864.8 198.9 C 866.2 198.6 867.5 198.2 868.8 197.8 C 870.2 197.4 871.5 197.1 872.8 196.7 C 874.2 196.3 875.5 196.0 876.8 195.6 C 878.2 195.2 879.5 194.8 880.8 194.5 C 882.2 194.1 883.5 193.7 884.8 193.3 C 886.2 193.0 887.5 192.6 888.8 192.2 C 890.2 191.9 891.5 191.5 892.8 191.1 C 894.2 190.7 895.5 190.4 896.8 190.0 C 898.2 189.6 899.5 189.2 900.8 188.9 C 902.2 188.5 903.5 188.1 904.8 187.7 C 906.2 187.4 907.5 187.0 908.8 186.6 C 910.2 186.2 911.5 185.9 912.8 185.5 C 914.2 185.1 915.5 184.8 916.8 184.4 C 918.2 184.0 919.5 183.6 920.8 183.3 C 922.2 182.9 923.5 182.5 924.8 182.2 C 926.2 181.8 927.5 181.4 928.8 181.1 C 930.2 180.7 931.5 180.3 932.8 180.0 C 934.2 179.6 935.5 179.3 936.8 178.9 C 938.2 178.5 939.5 178.2 940.8 177.8 C 942.2 177.5 943.5 177.1 944.8 176.8 C 946.2 176.4 947.5 176.0 948.8 175.7 C 950.2 175.3 951.5 175.0 952.8 174.7 C 954.2 174.3 955.5 174.0 956.8 173.6 C 958.2 173.3 959.5 172.9 960.8 172.6 C 962.2 172.3 963.5 171.9 964.8 171.6 C 966.2 171.3 967.5 170.9 968.8 170.6 C 970.2 170.3 971.5 169.9 972.8 169.6 C 974.2 169.3 975.5 169.0 976.8 168.6 C 978.2 168.3 979.5 168.0 980.8 167.7 C 982.2 167.4 983.5 167.1 984.8 166.8 C 986.2 166.4 987.5 166.1 988.8 165.8 C 990.2 165.5 991.5 165.2 992.8 164.9 C 994.2 164.6 995.5 164.3 996.8 164.0 C 998.2 163.8 999.5 163.5 1000.8 163.2 C 1002.2 162.9 1003.5 162.6 1004.8 162.3 C 1006.2 162.1 1007.5 161.8 1008.8 161.5 C 1010.2 161.3 1011.5 161.0 1012.8 160.7 C 1014.2 160.5 1015.5 160.2 1016.8 159.9 C 1018.2 159.7 1019.5 159.4 1020.8 159.2 C 1022.2 158.9 1023.5 158.7 1024.8 158.5 C 1026.2 158.2 1027.5 158.0 1028.8 157.8 C 1030.2 157.5 1031.5 157.3 1032.8 157.1 C 1034.2 156.9 1035.5 156.6 1036.8 156.4 C 1038.2 156.2 1039.5 156.0 1040.8 155.8 C 1042.2 155.6 1043.5 155.4 1044.8 155.2 C 1046.2 155.0 1047.5 154.8 1048.8 154.6 C 1050.2 154.4 1051.5 154.3 1052.8 154.1 C 1054.2 153.9 1055.5 153.7 1056.8 153.6 C 1058.2 153.4 1059.5 153.3 1060.8 153.1 C 1062.2 152.9 1063.5 152.8 1064.8 152.7 C 1066.2 152.5 1067.5 152.4 1068.8 152.2 C 1070.2 152.1 1071.5 152.0 1072.8 151.9 C 1074.2 151.7 1075.5 151.6 1076.8 151.5 C 1078.2 151.4 1079.5 151.3 1080.8 151.2 C 1082.2 151.1 1083.5 151.0 1084.8 150.9 C 1086.2 150.8 1087.5 150.7 1088.8 150.7 C 1090.2 150.6 1091.5 150.5 1092.8 150.5 C 1094.2 150.4 1095.5 150.3 1096.8 150.3 C 1098.2 150.2 1099.5 150.2 1100.8 150.2 C 1102.2 150.1 1103.5 150.1 1104.8 150.1 C 1106.2 150.0 1107.6 150.0 1108.8 150.0 C 1110.0 150.0 1111.5 150.0 1112.0 150.0 "/>
<style>
.wave{animation:wave 8s linear infinite}
@keyframes wave{0%,100%{opacity:0.52}50%{opacity:1}}
.ring{transform-box:fill-box;transform-origin:center;animation:fire 8s ease-out infinite}
@keyframes fire{0%,70%{opacity:0;transform:scale(0.3)}74%{opacity:0.5;transform:scale(0.62)}88%{opacity:0;transform:scale(1)}100%{opacity:0}}
.arrowpulse{transform-box:fill-box;transform-origin:center;animation:tip 8s ease-in-out infinite}
@keyframes tip{0%,72%{transform:scale(1)}79%{transform:scale(1.16)}86%,100%{transform:scale(1)}}
@media (prefers-reduced-motion:reduce){#head{display:none}.wave,.ring,.arrowpulse{animation:none}.ring{opacity:0}}
</style>
</defs>
<rect x="0" y="0" width="1200" height="340" rx="18" fill="#ffffff"/>
<rect x="0" y="0" width="1200" height="340" rx="18" fill="url(#halo)"/>
<g stroke-linecap="round">
<line x1="164.7" y1="292" x2="164.7" y2="297" stroke="#6e7781" stroke-opacity="0.20" stroke-width="1"/>
<line x1="259.5" y1="292" x2="259.5" y2="297" stroke="#6e7781" stroke-opacity="0.20" stroke-width="1"/>
<line x1="354.2" y1="292" x2="354.2" y2="297" stroke="#6e7781" stroke-opacity="0.20" stroke-width="1"/>
<line x1="448.9" y1="292" x2="448.9" y2="297" stroke="#6e7781" stroke-opacity="0.20" stroke-width="1"/>
<line x1="543.6" y1="292" x2="543.6" y2="297" stroke="#6e7781" stroke-opacity="0.20" stroke-width="1"/>
<line x1="638.4" y1="292" x2="638.4" y2="297" stroke="#6e7781" stroke-opacity="0.20" stroke-width="1"/>
<line x1="733.1" y1="292" x2="733.1" y2="297" stroke="#6e7781" stroke-opacity="0.20" stroke-width="1"/>
<line x1="827.8" y1="292" x2="827.8" y2="297" stroke="#6e7781" stroke-opacity="0.20" stroke-width="1"/>
<line x1="922.5" y1="292" x2="922.5" y2="297" stroke="#6e7781" stroke-opacity="0.20" stroke-width="1"/>
<line x1="1017.3" y1="292" x2="1017.3" y2="297" stroke="#6e7781" stroke-opacity="0.20" stroke-width="1"/>
</g>
<line x1="60" y1="292" x2="1132" y2="292" stroke="#6e7781" stroke-opacity="0.32" stroke-width="1.2"/>
<line x1="632" y1="150" x2="1122" y2="150" stroke="#6e7781" stroke-opacity="0.32" stroke-width="1.2" stroke-dasharray="1 5" stroke-linecap="round"/>
<g stroke-linecap="round">
<line x1="85.6" y1="274" x2="85.6" y2="292" stroke="#b45309" stroke-opacity="0.26" stroke-width="1.4"/>
<line x1="116.9" y1="268" x2="116.9" y2="292" stroke="#b45309" stroke-opacity="0.26" stroke-width="1.4"/>
<line x1="148.1" y1="276" x2="148.1" y2="292" stroke="#b45309" stroke-opacity="0.26" stroke-width="1.4"/>
<line x1="179.4" y1="270" x2="179.4" y2="292" stroke="#b45309" stroke-opacity="0.26" stroke-width="1.4"/>
<line x1="210.7" y1="275" x2="210.7" y2="292" stroke="#b45309" stroke-opacity="0.26" stroke-width="1.4"/>
<line x1="241.9" y1="267" x2="241.9" y2="292" stroke="#b45309" stroke-opacity="0.26" stroke-width="1.4"/>
<line x1="273.2" y1="273" x2="273.2" y2="292" stroke="#b45309" stroke-opacity="0.26" stroke-width="1.4"/>
</g>
<use xlink:href="#spine" href="#spine" fill="none" stroke="url(#sg)" stroke-opacity="0.30" stroke-width="7" stroke-linecap="round" stroke-linejoin="round" filter="url(#soft)"/>
<use xlink:href="#spine" href="#spine" fill="none" stroke="url(#sg)" stroke-width="3" stroke-linecap="round" stroke-linejoin="round"/>
<g>
<circle class="wave" cx="70.0" cy="284.0" r="2.3" fill="url(#sg)" style="animation-delay:-3.04s"/>
<circle class="wave" cx="116.0" cy="272.1" r="2.3" fill="url(#sg)" style="animation-delay:-2.76s"/>
<circle class="wave" cx="159.1" cy="284.0" r="2.3" fill="url(#sg)" style="animation-delay:-2.48s"/>
<circle class="wave" cx="207.0" cy="284.0" r="2.3" fill="url(#sg)" style="animation-delay:-2.19s"/>
<circle class="wave" cx="243.6" cy="275.5" r="2.3" fill="url(#sg)" style="animation-delay:-1.91s"/>
<circle class="wave" cx="290.2" cy="283.1" r="2.3" fill="url(#sg)" style="animation-delay:-1.63s"/>
<circle class="wave" cx="354.0" cy="255.0" r="2.3" fill="url(#sg)" style="animation-delay:-1.35s"/>
<circle class="wave" cx="422.6" cy="241.7" r="2.3" fill="url(#sg)" style="animation-delay:-1.06s"/>
<circle class="wave" cx="492.3" cy="236.1" r="2.3" fill="url(#sg)" style="animation-delay:-0.78s"/>
<circle class="wave" cx="561.4" cy="232.0" r="2.3" fill="url(#sg)" style="animation-delay:-0.5s"/>
<circle class="wave" cx="631.4" cy="232.0" r="2.3" fill="url(#sg)" style="animation-delay:-0.22s"/>
<circle class="wave" cx="701.3" cy="231.1" r="2.3" fill="url(#sg)" style="animation-delay:0.07s"/>
<circle class="wave" cx="770.6" cy="221.8" r="2.3" fill="url(#sg)" style="animation-delay:0.35s"/>
<circle class="wave" cx="838.7" cy="206.0" r="2.3" fill="url(#sg)" style="animation-delay:0.63s"/>
<circle class="wave" cx="906.2" cy="187.4" r="2.3" fill="url(#sg)" style="animation-delay:0.91s"/>
<circle class="wave" cx="973.8" cy="169.4" r="2.3" fill="url(#sg)" style="animation-delay:1.2s"/>
<circle class="wave" cx="1042.3" cy="155.6" r="2.3" fill="url(#sg)" style="animation-delay:1.48s"/>
<circle class="wave" cx="1112.0" cy="150.0" r="2.3" fill="url(#sg)" style="animation-delay:1.76s"/>
</g>
<circle class="ring" cx="1112" cy="150" r="21" fill="none" stroke="#0f766e" stroke-width="1.6" opacity="0"/>
<circle cx="1112" cy="150" r="5.2" fill="#0f766e"/>
<polygon class="arrowpulse" points="1112.0,150.0 1097.0,157.1 1097.0,143.1" fill="#0f766e"/>
<g id="head" opacity="0">
<circle r="7" fill="#b45309" fill-opacity="0.6" filter="url(#soft)"/>
<line x1="0" y1="-9" x2="0" y2="9" stroke="#26313c" stroke-opacity="0.45" stroke-width="1.3"/>
<circle r="3.6" fill="#92400e"/>
<animateMotion dur="8s" repeatCount="indefinite" rotate="0" calcMode="spline" keyTimes="0;0.12;0.72;1" keyPoints="0;0;1;1" keySplines="0 0 1 1;0.42 0 0.58 1;0 0 1 1"><mpath xlink:href="#spine"/></animateMotion>
<animate attributeName="opacity" dur="8s" repeatCount="indefinite" keyTimes="0;0.10;0.14;0.70;0.74;1" values="0;0;1;1;0;0"/>
</g>
<rect x="58" y="100" width="3" height="26" rx="1.5" fill="#b45309"/>
<text x="76" y="118" font-family="-apple-system, BlinkMacSystemFont, 'Segoe UI', Helvetica, Arial, sans-serif" font-size="52" font-weight="700" letter-spacing="0.3" fill="#1f2328">Andres del Castillo</text>
<text x="78" y="152" font-family="'SFMono-Regular', ui-monospace, 'JetBrains Mono', Menlo, Consolas, monospace" font-size="14.5" letter-spacing="3.2" fill="#57606a">POPULATION GENETICS  ·  SCIENTIFIC SOFTWARE  ·  MACHINE LEARNING</text>
<text x="66" y="284" font-family="'SFMono-Regular', ui-monospace, 'JetBrains Mono', Menlo, Consolas, monospace" font-size="10.5" letter-spacing="1.5" fill="#6e7781">POP A</text>
<text x="1104" y="168" font-family="'SFMono-Regular', ui-monospace, 'JetBrains Mono', Menlo, Consolas, monospace" font-size="10.5" letter-spacing="1.5" fill="#6e7781" text-anchor="end">POP B</text>
<text x="1104" y="134" font-family="'SFMono-Regular', ui-monospace, 'JetBrains Mono', Menlo, Consolas, monospace" font-size="10.5" letter-spacing="2.2" fill="#6e7781" text-anchor="end">DIRECTION INFERRED</text>
</svg>