<svg xmlns="http://www.w3.org/2000/svg" xmlns:xlink="http://www.w3.org/1999/xlink" viewBox="0 0 1200 340" width="1200" height="340" role="img" aria-label="Andres del Castillo. Statistics, machine learning, scientific software.">
<defs>
<linearGradient id="g" gradientUnits="userSpaceOnUse" x1="775" y1="170" x2="1085" y2="170"><stop offset="0" stop-color="#b45309"/><stop offset="0.5" stop-color="#5f8f6a"/><stop offset="1" stop-color="#0f766e"/></linearGradient>
<radialGradient id="halo" cx="0.14" cy="0.34" r="0.6"><stop offset="0" stop-color="#e9eff5" stop-opacity="0.7"/><stop offset="1" stop-color="#e9eff5" stop-opacity="0"/></radialGradient>
<filter id="soft" x="-60%" y="-60%" width="220%" height="220%"><feGaussianBlur stdDeviation="2.6"/></filter>
<path id="curve" pathLength="1000" d="M 1085.0 170.0 L 1084.8 177.8 L 1084.4 185.5 L 1083.6 193.2 L 1082.5 200.8 L 1081.1 208.3 L 1079.4 215.7 L 1077.4 222.9 L 1075.1 229.9 L 1072.5 236.7 L 1069.7 243.2 L 1066.5 249.5 L 1063.1 255.5 L 1059.4 261.2 L 1055.4 266.6 L 1051.2 271.6 L 1046.7 276.3 L 1042.0 280.6 L 1037.1 284.5 L 1032.0 288.0 L 1026.6 291.0 L 1021.1 293.6 L 1015.4 295.8 L 1009.5 297.5 L 1003.4 298.8 L 997.3 299.6 L 990.9 300.0 L 984.5 299.9 L 977.9 299.3 L 971.2 298.2 L 964.5 296.7 L 957.7 294.8 L 950.8 292.4 L 943.9 289.5 L 937.0 286.3 L 930.0 282.6 L 923.0 278.5 L 916.1 274.0 L 909.2 269.2 L 902.3 264.0 L 895.5 258.4 L 888.8 252.6 L 882.1 246.4 L 875.5 240.0 L 869.1 233.3 L 862.7 226.4 L 856.6 219.3 L 850.5 212.0 L 844.6 204.6 L 838.9 197.0 L 833.4 189.4 L 828.0 181.7 L 822.9 173.9 L 818.0 166.1 L 813.3 158.3 L 808.8 150.6 L 804.6 143.0 L 800.6 135.4 L 796.9 128.0 L 793.5 120.7 L 790.3 113.6 L 787.5 106.7 L 784.9 100.0 L 782.6 93.6 L 780.6 87.4 L 778.9 81.6 L 777.5 76.0 L 776.4 70.8 L 775.6 66.0 L 775.2 61.5 L 775.0 57.4 L 775.2 53.7 L 775.6 50.5 L 776.4 47.6 L 777.5 45.2 L 778.9 43.3 L 780.6 41.8 L 782.6 40.7 L 784.9 40.1 L 787.5 40.0 L 790.3 40.4 L 793.5 41.2 L 796.9 42.5 L 800.6 44.2 L 804.6 46.4 L 808.8 49.0 L 813.3 52.0 L 818.0 55.5 L 822.9 59.4 L 828.0 63.7 L 833.4 68.4 L 838.9 73.4 L 844.6 78.8 L 850.5 84.5 L 856.6 90.5 L 862.7 96.8 L 869.1 103.3 L 875.5 110.1 L 882.1 117.1 L 888.8 124.3 L 895.5 131.7 L 902.3 139.2 L 909.2 146.8 L 916.1 154.5 L 923.0 162.2 L 930.0 170.0 L 937.0 177.8 L 943.9 185.5 L 950.8 193.2 L 957.7 200.8 L 964.5 208.3 L 971.2 215.7 L 977.9 222.9 L 984.5 229.9 L 990.9 236.7 L 997.3 243.2 L 1003.4 249.5 L 1009.5 255.5 L 1015.4 261.2 L 1021.1 266.6 L 1026.6 271.6 L 1032.0 276.3 L 1037.1 280.6 L 1042.0 284.5 L 1046.7 288.0 L 1051.2 291.0 L 1055.4 293.6 L 1059.4 295.8 L 1063.1 297.5 L 1066.5 298.8 L 1069.7 299.6 L 1072.5 300.0 L 1075.1 299.9 L 1077.4 299.3 L 1079.4 298.2 L 1081.1 296.7 L 1082.5 294.8 L 1083.6 292.4 L 1084.4 289.5 L 1084.8 286.3 L 1085.0 282.6 L 1084.8 278.5 L 1084.4 274.0 L 1083.6 269.2 L 1082.5 264.0 L 1081.1 258.4 L 1079.4 252.6 L 1077.4 246.4 L 1075.1 240.0 L 1072.5 233.3 L 1069.7 226.4 L 1066.5 219.3 L 1063.1 212.0 L 1059.4 204.6 L 1055.4 197.0 L 1051.2 189.4 L 1046.7 181.7 L 1042.0 173.9 L 1037.1 166.1 L 1032.0 158.3 L 1026.6 150.6 L 1021.1 143.0 L 1015.4 135.4 L 1009.5 128.0 L 1003.4 120.7 L 997.3 113.6 L 990.9 106.7 L 984.5 100.0 L 977.9 93.6 L 971.2 87.4 L 964.5 81.6 L 957.7 76.0 L 950.8 70.8 L 943.9 66.0 L 937.0 61.5 L 930.0 57.4 L 923.0 53.7 L 916.1 50.5 L 909.2 47.6 L 902.3 45.2 L 895.5 43.3 L 888.8 41.8 L 882.1 40.7 L 875.5 40.1 L 869.1 40.0 L 862.7 40.4 L 856.6 41.2 L 850.5 42.5 L 844.6 44.2 L 838.9 46.4 L 833.4 49.0 L 828.0 52.0 L 822.9 55.5 L 818.0 59.4 L 813.3 63.7 L 808.8 68.4 L 804.6 73.4 L 800.6 78.8 L 796.9 84.5 L 793.5 90.5 L 790.3 96.8 L 787.5 103.3 L 784.9 110.1 L 782.6 117.1 L 780.6 124.3 L 778.9 131.7 L 777.5 139.2 L 776.4 146.8 L 775.6 154.5 L 775.2 162.2 L 775.0 170.0 L 775.2 177.8 L 775.6 185.5 L 776.4 193.2 L 777.5 200.8 L 778.9 208.3 L 780.6 215.7 L 782.6 222.9 L 784.9 229.9 L 787.5 236.7 L 790.3 243.2 L 793.5 249.5 L 796.9 255.5 L 800.6 261.2 L 804.6 266.6 L 808.8 271.6 L 813.3 276.3 L 818.0 280.6 L 822.9 284.5 L 828.0 288.0 L 833.4 291.0 L 838.9 293.6 L 844.6 295.8 L 850.5 297.5 L 856.6 298.8 L 862.7 299.6 L 869.1 300.0 L 875.5 299.9 L 882.1 299.3 L 888.8 298.2 L 895.5 296.7 L 902.3 294.8 L 909.2 292.4 L 916.1 289.5 L 923.0 286.3 L 930.0 282.6 L 937.0 278.5 L 943.9 274.0 L 950.8 269.2 L 957.7 264.0 L 964.5 258.4 L 971.2 252.6 L 977.9 246.4 L 984.5 240.0 L 990.9 233.3 L 997.3 226.4 L 1003.4 219.3 L 1009.5 212.0 L 1015.4 204.6 L 1021.1 197.0 L 1026.6 189.4 L 1032.0 181.7 L 1037.1 173.9 L 1042.0 166.1 L 1046.7 158.3 L 1051.2 150.6 L 1055.4 143.0 L 1059.4 135.4 L 1063.1 128.0 L 1066.5 120.7 L 1069.7 113.6 L 1072.5 106.7 L 1075.1 100.0 L 1077.4 93.6 L 1079.4 87.4 L 1081.1 81.6 L 1082.5 76.0 L 1083.6 70.8 L 1084.4 66.0 L 1084.8 61.5 L 1085.0 57.4 L 1084.8 53.7 L 1084.4 50.5 L 1083.6 47.6 L 1082.5 45.2 L 1081.1 43.3 L 1079.4 41.8 L 1077.4 40.7 L 1075.1 40.1 L 1072.5 40.0 L 1069.7 40.4 L 1066.5 41.2 L 1063.1 42.5 L 1059.4 44.2 L 1055.4 46.4 L 1051.2 49.0 L 1046.7 52.0 L 1042.0 55.5 L 1037.1 59.4 L 1032.0 63.7 L 1026.6 68.4 L 1021.1 73.4 L 1015.4 78.8 L 1009.5 84.5 L 1003.4 90.5 L 997.3 96.8 L 990.9 103.3 L 984.5 110.1 L 977.9 117.1 L 971.2 124.3 L 964.5 131.7 L 957.7 139.2 L 950.8 146.8 L 943.9 154.5 L 937.0 162.2 L 930.0 170.0 L 923.0 177.8 L 916.1 185.5 L 909.2 193.2 L 902.3 200.8 L 895.5 208.3 L 888.8 215.7 L 882.1 222.9 L 875.5 229.9 L 869.1 236.7 L 862.7 243.2 L 856.6 249.5 L 850.5 255.5 L 844.6 261.2 L 838.9 266.6 L 833.4 271.6 L 828.0 276.3 L 822.9 280.6 L 818.0 284.5 L 813.3 288.0 L 808.8 291.0 L 804.6 293.6 L 800.6 295.8 L 796.9 297.5 L 793.5 298.8 L 790.3 299.6 L 787.5 300.0 L 784.9 299.9 L 782.6 299.3 L 780.6 298.2 L 778.9 296.7 L 777.5 294.8 L 776.4 292.4 L 775.6 289.5 L 775.2 286.3 L 775.0 282.6 L 775.2 278.5 L 775.6 274.0 L 776.4 269.2 L 777.5 264.0 L 778.9 258.4 L 780.6 252.6 L 782.6 246.4 L 784.9 240.0 L 787.5 233.3 L 790.3 226.4 L 793.5 219.3 L 796.9 212.0 L 800.6 204.6 L 804.6 197.0 L 808.8 189.4 L 813.3 181.7 L 818.0 173.9 L 822.9 166.1 L 828.0 158.3 L 833.4 150.6 L 838.9 143.0 L 844.6 135.4 L 850.5 128.0 L 856.6 120.7 L 862.7 113.6 L 869.1 106.7 L 875.5 100.0 L 882.1 93.6 L 888.8 87.4 L 895.5 81.6 L 902.3 76.0 L 909.2 70.8 L 916.1 66.0 L 923.0 61.5 L 930.0 57.4 L 937.0 53.7 L 943.9 50.5 L 950.8 47.6 L 957.7 45.2 L 964.5 43.3 L 971.2 41.8 L 977.9 40.7 L 984.5 40.1 L 990.9 40.0 L 997.3 40.4 L 1003.4 41.2 L 1009.5 42.5 L 1015.4 44.2 L 1021.1 46.4 L 1026.6 49.0 L 1032.0 52.0 L 1037.1 55.5 L 1042.0 59.4 L 1046.7 63.7 L 1051.2 68.4 L 1055.4 73.4 L 1059.4 78.8 L 1063.1 84.5 L 1066.5 90.5 L 1069.7 96.8 L 1072.5 103.3 L 1075.1 110.1 L 1077.4 117.1 L 1079.4 124.3 L 1081.1 131.7 L 1082.5 139.2 L 1083.6 146.8 L 1084.4 154.5 L 1084.8 162.2 L 1085.0 170.0 Z"/>
<style>
#beam{stroke-dasharray:70 930;animation:trace 6s linear infinite}
@keyframes trace{from{stroke-dashoffset:0}to{stroke-dashoffset:-1000}}
#tail{stroke-dasharray:150 850;animation:trace 6s linear infinite;opacity:.35}
@media (prefers-reduced-motion:reduce){#beam,#tail,#head{display:none}}
</style>
</defs>
<rect x="0" y="0" width="1200" height="340" rx="18" fill="#ffffff"/>
<rect x="0" y="0" width="1200" height="340" rx="18" fill="url(#halo)"/>
<line x1="761.0" y1="170.0" x2="1099.0" y2="170.0" stroke="#6e7781" stroke-opacity="0.20" stroke-width="1"/>
<line x1="930.0" y1="26.0" x2="930.0" y2="314.0" stroke="#6e7781" stroke-opacity="0.20" stroke-width="1"/>
<ellipse cx="930" cy="170" rx="163" ry="138" fill="none" stroke="#6e7781" stroke-opacity="0.140" stroke-width="1" stroke-dasharray="1 6"/>
<path d="M 1083.0 170.0 L 1081.8 177.8 L 1080.2 185.5 L 1078.3 193.2 L 1076.2 200.8 L 1073.7 208.3 L 1070.9 215.7 L 1067.9 222.9 L 1064.6 229.9 L 1061.0 236.7 L 1057.2 243.2 L 1053.0 249.5 L 1048.7 255.5 L 1044.1 261.2 L 1039.3 266.6 L 1034.2 271.6 L 1029.0 276.3 L 1023.5 280.6 L 1017.9 284.5 L 1012.1 288.0 L 1006.1 291.0 L 1000.0 293.6 L 993.7 295.8 L 987.3 297.5 L 980.8 298.8 L 974.1 299.6 L 967.4 300.0 L 960.6 299.9 L 953.8 299.3 L 946.9 298.2 L 940.0 296.7 L 933.0 294.8 L 926.1 292.4 L 919.1 289.5 L 912.2 286.3 L 905.3 282.6 L 898.5 278.5 L 891.7 274.0 L 885.0 269.2 L 878.4 264.0 L 871.9 258.4 L 865.5 252.6 L 859.2 246.4 L 853.1 240.0 L 847.2 233.3 L 841.4 226.4 L 835.7 219.3 L 830.3 212.0 L 825.1 204.6 L 820.1 197.0 L 815.3 189.4 L 810.7 181.7 L 806.4 173.9 L 802.3 166.1 L 798.5 158.3 L 795.0 150.6 L 791.7 143.0 L 788.7 135.4 L 786.0 128.0 L 783.5 120.7 L 781.4 113.6 L 779.6 106.7 L 778.1 100.0 L 776.8 93.6 L 775.9 87.4 L 775.3 81.6 L 775.0 76.0 L 775.0 70.8 L 775.4 66.0 L 776.0 61.5 L 777.0 57.4 L 778.2 53.7 L 779.8 50.5 L 781.7 47.6 L 783.8 45.2 L 786.3 43.3 L 789.1 41.8 L 792.1 40.7 L 795.4 40.1 L 799.0 40.0 L 802.8 40.4 L 807.0 41.2 L 811.3 42.5 L 815.9 44.2 L 820.7 46.4 L 825.8 49.0 L 831.0 52.0 L 836.5 55.5 L 842.1 59.4 L 847.9 63.7 L 853.9 68.4 L 860.0 73.4 L 866.3 78.8 L 872.7 84.5 L 879.2 90.5 L 885.9 96.8 L 892.6 103.3 L 899.4 110.1 L 906.2 117.1 L 913.1 124.3 L 920.0 131.7 L 927.0 139.2 L 933.9 146.8 L 940.9 154.5 L 947.8 162.2 L 954.7 170.0 L 961.5 177.8 L 968.3 185.5 L 975.0 193.2 L 981.6 200.8 L 988.1 208.3 L 994.5 215.7 L 1000.8 222.9 L 1006.9 229.9 L 1012.8 236.7 L 1018.6 243.2 L 1024.3 249.5 L 1029.7 255.5 L 1034.9 261.2 L 1039.9 266.6 L 1044.7 271.6 L 1049.3 276.3 L 1053.6 280.6 L 1057.7 284.5 L 1061.5 288.0 L 1065.0 291.0 L 1068.3 293.6 L 1071.3 295.8 L 1074.0 297.5 L 1076.5 298.8 L 1078.6 299.6 L 1080.4 300.0 L 1081.9 299.9 L 1083.2 299.3 L 1084.1 298.2 L 1084.7 296.7 L 1085.0 294.8 L 1085.0 292.4 L 1084.6 289.5 L 1084.0 286.3 L 1083.0 282.6 L 1081.8 278.5 L 1080.2 274.0 L 1078.3 269.2 L 1076.2 264.0 L 1073.7 258.4 L 1070.9 252.6 L 1067.9 246.4 L 1064.6 240.0 L 1061.0 233.3 L 1057.2 226.4 L 1053.0 219.3 L 1048.7 212.0 L 1044.1 204.6 L 1039.3 197.0 L 1034.2 189.4 L 1029.0 181.7 L 1023.5 173.9 L 1017.9 166.1 L 1012.1 158.3 L 1006.1 150.6 L 1000.0 143.0 L 993.7 135.4 L 987.3 128.0 L 980.8 120.7 L 974.1 113.6 L 967.4 106.7 L 960.6 100.0 L 953.8 93.6 L 946.9 87.4 L 940.0 81.6 L 933.0 76.0 L 926.1 70.8 L 919.1 66.0 L 912.2 61.5 L 905.3 57.4 L 898.5 53.7 L 891.7 50.5 L 885.0 47.6 L 878.4 45.2 L 871.9 43.3 L 865.5 41.8 L 859.2 40.7 L 853.1 40.1 L 847.2 40.0 L 841.4 40.4 L 835.7 41.2 L 830.3 42.5 L 825.1 44.2 L 820.1 46.4 L 815.3 49.0 L 810.7 52.0 L 806.4 55.5 L 802.3 59.4 L 798.5 63.7 L 795.0 68.4 L 791.7 73.4 L 788.7 78.8 L 786.0 84.5 L 783.5 90.5 L 781.4 96.8 L 779.6 103.3 L 778.1 110.1 L 776.8 117.1 L 775.9 124.3 L 775.3 131.7 L 775.0 139.2 L 775.0 146.8 L 775.4 154.5 L 776.0 162.2 L 777.0 170.0 L 778.2 177.8 L 779.8 185.5 L 781.7 193.2 L 783.8 200.8 L 786.3 208.3 L 789.1 215.7 L 792.1 222.9 L 795.4 229.9 L 799.0 236.7 L 802.8 243.2 L 807.0 249.5 L 811.3 255.5 L 815.9 261.2 L 820.7 266.6 L 825.8 271.6 L 831.0 276.3 L 836.5 280.6 L 842.1 284.5 L 847.9 288.0 L 853.9 291.0 L 860.0 293.6 L 866.3 295.8 L 872.7 297.5 L 879.2 298.8 L 885.9 299.6 L 892.6 300.0 L 899.4 299.9 L 906.2 299.3 L 913.1 298.2 L 920.0 296.7 L 927.0 294.8 L 933.9 292.4 L 940.9 289.5 L 947.8 286.3 L 954.7 282.6 L 961.5 278.5 L 968.3 274.0 L 975.0 269.2 L 981.6 264.0 L 988.1 258.4 L 994.5 252.6 L 1000.8 246.4 L 1006.9 240.0 L 1012.8 233.3 L 1018.6 226.4 L 1024.3 219.3 L 1029.7 212.0 L 1034.9 204.6 L 1039.9 197.0 L 1044.7 189.4 L 1049.3 181.7 L 1053.6 173.9 L 1057.7 166.1 L 1061.5 158.3 L 1065.0 150.6 L 1068.3 143.0 L 1071.3 135.4 L 1074.0 128.0 L 1076.5 120.7 L 1078.6 113.6 L 1080.4 106.7 L 1081.9 100.0 L 1083.2 93.6 L 1084.1 87.4 L 1084.7 81.6 L 1085.0 76.0 L 1085.0 70.8 L 1084.6 66.0 L 1084.0 61.5 L 1083.0 57.4 L 1081.8 53.7 L 1080.2 50.5 L 1078.3 47.6 L 1076.2 45.2 L 1073.7 43.3 L 1070.9 41.8 L 1067.9 40.7 L 1064.6 40.1 L 1061.0 40.0 L 1057.2 40.4 L 1053.0 41.2 L 1048.7 42.5 L 1044.1 44.2 L 1039.3 46.4 L 1034.2 49.0 L 1029.0 52.0 L 1023.5 55.5 L 1017.9 59.4 L 1012.1 63.7 L 1006.1 68.4 L 1000.0 73.4 L 993.7 78.8 L 987.3 84.5 L 980.8 90.5 L 974.1 96.8 L 967.4 103.3 L 960.6 110.1 L 953.8 117.1 L 946.9 124.3 L 940.0 131.7 L 933.0 139.2 L 926.1 146.8 L 919.1 154.5 L 912.2 162.2 L 905.3 170.0 L 898.5 177.8 L 891.7 185.5 L 885.0 193.2 L 878.4 200.8 L 871.9 208.3 L 865.5 215.7 L 859.2 222.9 L 853.1 229.9 L 847.2 236.7 L 841.4 243.2 L 835.7 249.5 L 830.3 255.5 L 825.1 261.2 L 820.1 266.6 L 815.3 271.6 L 810.7 276.3 L 806.4 280.6 L 802.3 284.5 L 798.5 288.0 L 795.0 291.0 L 791.7 293.6 L 788.7 295.8 L 786.0 297.5 L 783.5 298.8 L 781.4 299.6 L 779.6 300.0 L 778.1 299.9 L 776.8 299.3 L 775.9 298.2 L 775.3 296.7 L 775.0 294.8 L 775.0 292.4 L 775.4 289.5 L 776.0 286.3 L 777.0 282.6 L 778.2 278.5 L 779.8 274.0 L 781.7 269.2 L 783.8 264.0 L 786.3 258.4 L 789.1 252.6 L 792.1 246.4 L 795.4 240.0 L 799.0 233.3 L 802.8 226.4 L 807.0 219.3 L 811.3 212.0 L 815.9 204.6 L 820.7 197.0 L 825.8 189.4 L 831.0 181.7 L 836.5 173.9 L 842.1 166.1 L 847.9 158.3 L 853.9 150.6 L 860.0 143.0 L 866.3 135.4 L 872.7 128.0 L 879.2 120.7 L 885.9 113.6 L 892.6 106.7 L 899.4 100.0 L 906.2 93.6 L 913.1 87.4 L 920.0 81.6 L 927.0 76.0 L 933.9 70.8 L 940.9 66.0 L 947.8 61.5 L 954.7 57.4 L 961.5 53.7 L 968.3 50.5 L 975.0 47.6 L 981.6 45.2 L 988.1 43.3 L 994.5 41.8 L 1000.8 40.7 L 1006.9 40.1 L 1012.8 40.0 L 1018.6 40.4 L 1024.3 41.2 L 1029.7 42.5 L 1034.9 44.2 L 1039.9 46.4 L 1044.7 49.0 L 1049.3 52.0 L 1053.6 55.5 L 1057.7 59.4 L 1061.5 63.7 L 1065.0 68.4 L 1068.3 73.4 L 1071.3 78.8 L 1074.0 84.5 L 1076.5 90.5 L 1078.6 96.8 L 1080.4 103.3 L 1081.9 110.1 L 1083.2 117.1 L 1084.1 124.3 L 1084.7 131.7 L 1085.0 139.2 L 1085.0 146.8 L 1084.6 154.5 L 1084.0 162.2 L 1083.0 170.0 Z" fill="none" stroke="url(#g)" stroke-opacity="0.16" stroke-width="1.6"/>
<path d="M 1083.0 170.0 L 1084.0 177.8 L 1084.6 185.5 L 1085.0 193.2 L 1085.0 200.8 L 1084.7 208.3 L 1084.1 215.7 L 1083.2 222.9 L 1081.9 229.9 L 1080.4 236.7 L 1078.6 243.2 L 1076.5 249.5 L 1074.0 255.5 L 1071.3 261.2 L 1068.3 266.6 L 1065.0 271.6 L 1061.5 276.3 L 1057.7 280.6 L 1053.6 284.5 L 1049.3 288.0 L 1044.7 291.0 L 1039.9 293.6 L 1034.9 295.8 L 1029.7 297.5 L 1024.3 298.8 L 1018.6 299.6 L 1012.8 300.0 L 1006.9 299.9 L 1000.8 299.3 L 994.5 298.2 L 988.1 296.7 L 981.6 294.8 L 975.0 292.4 L 968.3 289.5 L 961.5 286.3 L 954.7 282.6 L 947.8 278.5 L 940.9 274.0 L 933.9 269.2 L 927.0 264.0 L 920.0 258.4 L 913.1 252.6 L 906.2 246.4 L 899.4 240.0 L 892.6 233.3 L 885.9 226.4 L 879.2 219.3 L 872.7 212.0 L 866.3 204.6 L 860.0 197.0 L 853.9 189.4 L 847.9 181.7 L 842.1 173.9 L 836.5 166.1 L 831.0 158.3 L 825.8 150.6 L 820.7 143.0 L 815.9 135.4 L 811.3 128.0 L 807.0 120.7 L 802.8 113.6 L 799.0 106.7 L 795.4 100.0 L 792.1 93.6 L 789.1 87.4 L 786.3 81.6 L 783.8 76.0 L 781.7 70.8 L 779.8 66.0 L 778.2 61.5 L 777.0 57.4 L 776.0 53.7 L 775.4 50.5 L 775.0 47.6 L 775.0 45.2 L 775.3 43.3 L 775.9 41.8 L 776.8 40.7 L 778.1 40.1 L 779.6 40.0 L 781.4 40.4 L 783.5 41.2 L 786.0 42.5 L 788.7 44.2 L 791.7 46.4 L 795.0 49.0 L 798.5 52.0 L 802.3 55.5 L 806.4 59.4 L 810.7 63.7 L 815.3 68.4 L 820.1 73.4 L 825.1 78.8 L 830.3 84.5 L 835.7 90.5 L 841.4 96.8 L 847.2 103.3 L 853.1 110.1 L 859.2 117.1 L 865.5 124.3 L 871.9 131.7 L 878.4 139.2 L 885.0 146.8 L 891.7 154.5 L 898.5 162.2 L 905.3 170.0 L 912.2 177.8 L 919.1 185.5 L 926.1 193.2 L 933.0 200.8 L 940.0 208.3 L 946.9 215.7 L 953.8 222.9 L 960.6 229.9 L 967.4 236.7 L 974.1 243.2 L 980.8 249.5 L 987.3 255.5 L 993.7 261.2 L 1000.0 266.6 L 1006.1 271.6 L 1012.1 276.3 L 1017.9 280.6 L 1023.5 284.5 L 1029.0 288.0 L 1034.2 291.0 L 1039.3 293.6 L 1044.1 295.8 L 1048.7 297.5 L 1053.0 298.8 L 1057.2 299.6 L 1061.0 300.0 L 1064.6 299.9 L 1067.9 299.3 L 1070.9 298.2 L 1073.7 296.7 L 1076.2 294.8 L 1078.3 292.4 L 1080.2 289.5 L 1081.8 286.3 L 1083.0 282.6 L 1084.0 278.5 L 1084.6 274.0 L 1085.0 269.2 L 1085.0 264.0 L 1084.7 258.4 L 1084.1 252.6 L 1083.2 246.4 L 1081.9 240.0 L 1080.4 233.3 L 1078.6 226.4 L 1076.5 219.3 L 1074.0 212.0 L 1071.3 204.6 L 1068.3 197.0 L 1065.0 189.4 L 1061.5 181.7 L 1057.7 173.9 L 1053.6 166.1 L 1049.3 158.3 L 1044.7 150.6 L 1039.9 143.0 L 1034.9 135.4 L 1029.7 128.0 L 1024.3 120.7 L 1018.6 113.6 L 1012.8 106.7 L 1006.9 100.0 L 1000.8 93.6 L 994.5 87.4 L 988.1 81.6 L 981.6 76.0 L 975.0 70.8 L 968.3 66.0 L 961.5 61.5 L 954.7 57.4 L 947.8 53.7 L 940.9 50.5 L 933.9 47.6 L 927.0 45.2 L 920.0 43.3 L 913.1 41.8 L 906.2 40.7 L 899.4 40.1 L 892.6 40.0 L 885.9 40.4 L 879.2 41.2 L 872.7 42.5 L 866.3 44.2 L 860.0 46.4 L 853.9 49.0 L 847.9 52.0 L 842.1 55.5 L 836.5 59.4 L 831.0 63.7 L 825.8 68.4 L 820.7 73.4 L 815.9 78.8 L 811.3 84.5 L 807.0 90.5 L 802.8 96.8 L 799.0 103.3 L 795.4 110.1 L 792.1 117.1 L 789.1 124.3 L 786.3 131.7 L 783.8 139.2 L 781.7 146.8 L 779.8 154.5 L 778.2 162.2 L 777.0 170.0 L 776.0 177.8 L 775.4 185.5 L 775.0 193.2 L 775.0 200.8 L 775.3 208.3 L 775.9 215.7 L 776.8 222.9 L 778.1 229.9 L 779.6 236.7 L 781.4 243.2 L 783.5 249.5 L 786.0 255.5 L 788.7 261.2 L 791.7 266.6 L 795.0 271.6 L 798.5 276.3 L 802.3 280.6 L 806.4 284.5 L 810.7 288.0 L 815.3 291.0 L 820.1 293.6 L 825.1 295.8 L 830.3 297.5 L 835.7 298.8 L 841.4 299.6 L 847.2 300.0 L 853.1 299.9 L 859.2 299.3 L 865.5 298.2 L 871.9 296.7 L 878.4 294.8 L 885.0 292.4 L 891.7 289.5 L 898.5 286.3 L 905.3 282.6 L 912.2 278.5 L 919.1 274.0 L 926.1 269.2 L 933.0 264.0 L 940.0 258.4 L 946.9 252.6 L 953.8 246.4 L 960.6 240.0 L 967.4 233.3 L 974.1 226.4 L 980.8 219.3 L 987.3 212.0 L 993.7 204.6 L 1000.0 197.0 L 1006.1 189.4 L 1012.1 181.7 L 1017.9 173.9 L 1023.5 166.1 L 1029.0 158.3 L 1034.2 150.6 L 1039.3 143.0 L 1044.1 135.4 L 1048.7 128.0 L 1053.0 120.7 L 1057.2 113.6 L 1061.0 106.7 L 1064.6 100.0 L 1067.9 93.6 L 1070.9 87.4 L 1073.7 81.6 L 1076.2 76.0 L 1078.3 70.8 L 1080.2 66.0 L 1081.8 61.5 L 1083.0 57.4 L 1084.0 53.7 L 1084.6 50.5 L 1085.0 47.6 L 1085.0 45.2 L 1084.7 43.3 L 1084.1 41.8 L 1083.2 40.7 L 1081.9 40.1 L 1080.4 40.0 L 1078.6 40.4 L 1076.5 41.2 L 1074.0 42.5 L 1071.3 44.2 L 1068.3 46.4 L 1065.0 49.0 L 1061.5 52.0 L 1057.7 55.5 L 1053.6 59.4 L 1049.3 63.7 L 1044.7 68.4 L 1039.9 73.4 L 1034.9 78.8 L 1029.7 84.5 L 1024.3 90.5 L 1018.6 96.8 L 1012.8 103.3 L 1006.9 110.1 L 1000.8 117.1 L 994.5 124.3 L 988.1 131.7 L 981.6 139.2 L 975.0 146.8 L 968.3 154.5 L 961.5 162.2 L 954.7 170.0 L 947.8 177.8 L 940.9 185.5 L 933.9 193.2 L 927.0 200.8 L 920.0 208.3 L 913.1 215.7 L 906.2 222.9 L 899.4 229.9 L 892.6 236.7 L 885.9 243.2 L 879.2 249.5 L 872.7 255.5 L 866.3 261.2 L 860.0 266.6 L 853.9 271.6 L 847.9 276.3 L 842.1 280.6 L 836.5 284.5 L 831.0 288.0 L 825.8 291.0 L 820.7 293.6 L 815.9 295.8 L 811.3 297.5 L 807.0 298.8 L 802.8 299.6 L 799.0 300.0 L 795.4 299.9 L 792.1 299.3 L 789.1 298.2 L 786.3 296.7 L 783.8 294.8 L 781.7 292.4 L 779.8 289.5 L 778.2 286.3 L 777.0 282.6 L 776.0 278.5 L 775.4 274.0 L 775.0 269.2 L 775.0 264.0 L 775.3 258.4 L 775.9 252.6 L 776.8 246.4 L 778.1 240.0 L 779.6 233.3 L 781.4 226.4 L 783.5 219.3 L 786.0 212.0 L 788.7 204.6 L 791.7 197.0 L 795.0 189.4 L 798.5 181.7 L 802.3 173.9 L 806.4 166.1 L 810.7 158.3 L 815.3 150.6 L 820.1 143.0 L 825.1 135.4 L 830.3 128.0 L 835.7 120.7 L 841.4 113.6 L 847.2 106.7 L 853.1 100.0 L 859.2 93.6 L 865.5 87.4 L 871.9 81.6 L 878.4 76.0 L 885.0 70.8 L 891.7 66.0 L 898.5 61.5 L 905.3 57.4 L 912.2 53.7 L 919.1 50.5 L 926.1 47.6 L 933.0 45.2 L 940.0 43.3 L 946.9 41.8 L 953.8 40.7 L 960.6 40.1 L 967.4 40.0 L 974.1 40.4 L 980.8 41.2 L 987.3 42.5 L 993.7 44.2 L 1000.0 46.4 L 1006.1 49.0 L 1012.1 52.0 L 1017.9 55.5 L 1023.5 59.4 L 1029.0 63.7 L 1034.2 68.4 L 1039.3 73.4 L 1044.1 78.8 L 1048.7 84.5 L 1053.0 90.5 L 1057.2 96.8 L 1061.0 103.3 L 1064.6 110.1 L 1067.9 117.1 L 1070.9 124.3 L 1073.7 131.7 L 1076.2 139.2 L 1078.3 146.8 L 1080.2 154.5 L 1081.8 162.2 L 1083.0 170.0 Z" fill="none" stroke="url(#g)" stroke-opacity="0.16" stroke-width="1.6"/>
<use xlink:href="#curve" href="#curve" fill="none" stroke="url(#g)" stroke-opacity="0.6" stroke-width="2.2" stroke-linecap="round" stroke-linejoin="round"/>
<use id="tail" xlink:href="#curve" href="#curve" fill="none" stroke="url(#g)" stroke-width="4.5" stroke-linecap="round" filter="url(#soft)"/>
<use id="beam" xlink:href="#curve" href="#curve" fill="none" stroke="url(#g)" stroke-width="2.8" stroke-linecap="round"/>
<g id="head"><circle r="6" fill="#92400e" opacity="0.5" filter="url(#soft)"/><circle r="3" fill="#92400e"/><animateMotion dur="6s" repeatCount="indefinite" calcMode="linear"><mpath xlink:href="#curve"/></animateMotion></g>
<rect x="58" y="152" width="3" height="26" rx="1.5" fill="#b45309"/>
<text x="76" y="170" font-family="-apple-system, BlinkMacSystemFont, 'Segoe UI', Helvetica, Arial, sans-serif" font-size="52" font-weight="700" letter-spacing="0.3" fill="#1f2328">Andres del Castillo</text>
<text x="78" y="204" font-family="'SFMono-Regular', ui-monospace, 'JetBrains Mono', Menlo, Consolas, monospace" font-size="14.5" letter-spacing="3.2" fill="#57606a">STATISTICS  ·  MACHINE LEARNING  ·  SCIENTIFIC SOFTWARE</text>
</svg>