<svg xmlns="http://www.w3.org/2000/svg" xmlns:xlink="http://www.w3.org/1999/xlink" viewBox="0 0 1200 340" width="1200" height="340" role="img" aria-label="Andres del Castillo — population genetics, scientific software, machine learning">
<defs>
<linearGradient id="bg" x1="0" y1="0" x2="1" y2="1"><stop offset="0" stop-color="#0a1222"/><stop offset="0.55" stop-color="#0b1a2e"/><stop offset="1" stop-color="#0c2233"/></linearGradient>
<radialGradient id="glow" cx="0.5" cy="0.12" r="0.9"><stop offset="0" stop-color="#16405f" stop-opacity="0.55"/><stop offset="1" stop-color="#16405f" stop-opacity="0"/></radialGradient>
<linearGradient id="s1" x1="0" y1="0" x2="1" y2="0"><stop offset="0" stop-color="#38bdf8"/><stop offset="1" stop-color="#2dd4bf"/></linearGradient>
<linearGradient id="s2" x1="0" y1="0" x2="1" y2="0"><stop offset="0" stop-color="#818cf8"/><stop offset="1" stop-color="#a78bfa"/></linearGradient>
<linearGradient id="bar" x1="0" y1="0" x2="0" y2="1"><stop offset="0" stop-color="#38bdf8"/><stop offset="1" stop-color="#2dd4bf"/></linearGradient>
<linearGradient id="ul" x1="0" y1="0" x2="1" y2="0"><stop offset="0" stop-color="#38bdf8"/><stop offset="1" stop-color="#5eead4"/></linearGradient>
<filter id="soft" x="-50%" y="-50%" width="200%" height="200%"><feGaussianBlur stdDeviation="2.4"/></filter>
<path id="motion1" d="M 96.0 262.0 L 100.0 265.8 L 104.0 269.6 L 108.0 273.2 L 112.0 276.4 L 116.0 279.3 L 120.0 281.8 L 124.0 283.7 L 128.0 285.1 L 132.0 285.8 L 136.0 286.0 L 140.0 285.5 L 144.0 284.4 L 148.0 282.8 L 152.0 280.6 L 156.0 277.9 L 160.0 274.8 L 164.0 271.4 L 168.0 267.7 L 172.0 263.9 L 176.0 260.1 L 180.0 256.3 L 184.0 252.6 L 188.0 249.2 L 192.0 246.1 L 196.0 243.4 L 200.0 241.2 L 204.0 239.6 L 208.0 238.5 L 212.0 238.0 L 216.0 238.2 L 220.0 238.9 L 224.0 240.3 L 228.0 242.2 L 232.0 244.7 L 236.0 247.6 L 240.0 250.8 L 244.0 254.4 L 248.0 258.2 L 252.0 262.0 L 256.0 265.8 L 260.0 269.6 L 264.0 273.2 L 268.0 276.4 L 272.0 279.3 L 276.0 281.8 L 280.0 283.7 L 284.0 285.1 L 288.0 285.8 L 292.0 286.0 L 296.0 285.5 L 300.0 284.4 L 304.0 282.8 L 308.0 280.6 L 312.0 277.9 L 316.0 274.8 L 320.0 271.4 L 324.0 267.7 L 328.0 263.9 L 332.0 260.1 L 336.0 256.3 L 340.0 252.6 L 344.0 249.2 L 348.0 246.1 L 352.0 243.4 L 356.0 241.2 L 360.0 239.6 L 364.0 238.5 L 368.0 238.0 L 372.0 238.2 L 376.0 238.9 L 380.0 240.3 L 384.0 242.2 L 388.0 244.7 L 392.0 247.6 L 396.0 250.8 L 400.0 254.4 L 404.0 258.2 L 408.0 262.0 L 412.0 265.8 L 416.0 269.6 L 420.0 273.2 L 424.0 276.4 L 428.0 279.3 L 432.0 281.8 L 436.0 283.7 L 440.0 285.1 L 444.0 285.8 L 448.0 286.0 L 452.0 285.5 L 456.0 284.4 L 460.0 282.8 L 464.0 280.6 L 468.0 277.9 L 472.0 274.8 L 476.0 271.4 L 480.0 267.7 L 484.0 263.9 L 488.0 260.1 L 492.0 256.3 L 496.0 252.6 L 500.0 249.2 L 504.0 246.1 L 508.0 243.4 L 512.0 241.2 L 516.0 239.6 L 520.0 238.5 L 524.0 238.0 L 528.0 238.2 L 532.0 238.9 L 536.0 240.3 L 540.0 242.2 L 544.0 244.7 L 548.0 247.6 L 552.0 250.8 L 556.0 254.4 L 560.0 258.2 L 564.0 262.0 L 568.0 265.8 L 572.0 269.6 L 576.0 273.2 L 580.0 276.4 L 584.0 279.3 L 588.0 281.8 L 592.0 283.7 L 596.0 285.1 L 600.0 285.8 L 604.0 286.0 L 608.0 285.5 L 612.0 284.4 L 616.0 282.8 L 620.0 280.6 L 624.0 277.9 L 628.0 274.8 L 632.0 271.4 L 636.0 267.7 L 640.0 263.9 L 644.0 260.1 L 648.0 256.3 L 652.0 252.6 L 656.0 249.2 L 660.0 246.1 L 664.0 243.4 L 668.0 241.2 L 672.0 239.6 L 676.0 238.5 L 680.0 238.0 L 684.0 238.2 L 688.0 238.9 L 692.0 240.3 L 696.0 242.2 L 700.0 244.7 L 704.0 247.6 L 708.0 250.8 L 712.0 254.4 L 716.0 258.2 L 720.0 262.0 L 724.0 265.8 L 728.0 269.6 L 732.0 273.2 L 736.0 276.4 L 740.0 279.3 L 744.0 281.8 L 748.0 283.7 L 752.0 285.1 L 756.0 285.8 L 760.0 286.0 L 764.0 285.5 L 768.0 284.4 L 772.0 282.8 L 776.0 280.6 L 780.0 277.9 L 784.0 274.8 L 788.0 271.4 L 792.0 267.7 L 796.0 263.9 L 800.0 260.1 L 804.0 256.3 L 808.0 252.6 L 812.0 249.2 L 816.0 246.1 L 820.0 243.4 L 824.0 241.2 L 828.0 239.6 L 832.0 238.5 L 836.0 238.0 L 840.0 238.2 L 844.0 238.9 L 848.0 240.3 L 852.0 242.2 L 856.0 244.7 L 860.0 247.6 L 864.0 250.8 L 868.0 254.4 L 872.0 258.2 L 876.0 262.0 L 880.0 265.8 L 884.0 269.6 L 888.0 273.2 L 892.0 276.4 L 896.0 279.3 L 900.0 281.8 L 904.0 283.7 L 908.0 285.1 L 912.0 285.8 L 916.0 286.0 L 920.0 285.5 L 924.0 284.4 L 928.0 282.8 L 932.0 280.6 L 936.0 277.9 L 940.0 274.8 L 944.0 271.4 L 948.0 267.7 L 952.0 263.9 L 956.0 260.1 L 960.0 256.3 L 964.0 252.6 L 968.0 249.2 L 972.0 246.1 L 976.0 243.4 L 980.0 241.2 L 984.0 239.6 L 988.0 238.5 L 992.0 238.0 L 996.0 238.2 L 1000.0 238.9 L 1004.0 240.3 L 1008.0 242.2 L 1012.0 244.7 L 1016.0 247.6 L 1020.0 250.8 L 1024.0 254.4 L 1028.0 258.2 L 1032.0 262.0 L 1036.0 265.8 L 1040.0 269.6 L 1044.0 273.2 L 1048.0 276.4 L 1052.0 279.3 L 1056.0 281.8 L 1060.0 283.7 L 1064.0 285.1 L 1068.0 285.8 L 1072.0 286.0 L 1076.0 285.5 L 1080.0 284.4 L 1084.0 282.8 L 1088.0 280.6 L 1092.0 277.9 L 1096.0 274.8 L 1100.0 271.4 L 1104.0 267.7"/>
</defs>
<rect x="0" y="0" width="1200" height="340" rx="26" fill="url(#bg)"/>
<rect x="0" y="0" width="1200" height="340" rx="26" fill="url(#glow)"/>
<path d="M 96.0 262.0 L 100.0 265.8 L 104.0 269.6 L 108.0 273.2 L 112.0 276.4 L 116.0 279.3 L 120.0 281.8 L 124.0 283.7 L 128.0 285.1 L 132.0 285.8 L 136.0 286.0 L 140.0 285.5 L 144.0 284.4 L 148.0 282.8 L 152.0 280.6 L 156.0 277.9 L 160.0 274.8 L 164.0 271.4 L 168.0 267.7 L 172.0 263.9 L 176.0 260.1 L 180.0 256.3 L 184.0 252.6 L 188.0 249.2 L 192.0 246.1 L 196.0 243.4 L 200.0 241.2 L 204.0 239.6 L 208.0 238.5 L 212.0 238.0 L 216.0 238.2 L 220.0 238.9 L 224.0 240.3 L 228.0 242.2 L 232.0 244.7 L 236.0 247.6 L 240.0 250.8 L 244.0 254.4 L 248.0 258.2 L 252.0 262.0 L 256.0 265.8 L 260.0 269.6 L 264.0 273.2 L 268.0 276.4 L 272.0 279.3 L 276.0 281.8 L 280.0 283.7 L 284.0 285.1 L 288.0 285.8 L 292.0 286.0 L 296.0 285.5 L 300.0 284.4 L 304.0 282.8 L 308.0 280.6 L 312.0 277.9 L 316.0 274.8 L 320.0 271.4 L 324.0 267.7 L 328.0 263.9 L 332.0 260.1 L 336.0 256.3 L 340.0 252.6 L 344.0 249.2 L 348.0 246.1 L 352.0 243.4 L 356.0 241.2 L 360.0 239.6 L 364.0 238.5 L 368.0 238.0 L 372.0 238.2 L 376.0 238.9 L 380.0 240.3 L 384.0 242.2 L 388.0 244.7 L 392.0 247.6 L 396.0 250.8 L 400.0 254.4 L 404.0 258.2 L 408.0 262.0 L 412.0 265.8 L 416.0 269.6 L 420.0 273.2 L 424.0 276.4 L 428.0 279.3 L 432.0 281.8 L 436.0 283.7 L 440.0 285.1 L 444.0 285.8 L 448.0 286.0 L 452.0 285.5 L 456.0 284.4 L 460.0 282.8 L 464.0 280.6 L 468.0 277.9 L 472.0 274.8 L 476.0 271.4 L 480.0 267.7 L 484.0 263.9 L 488.0 260.1 L 492.0 256.3 L 496.0 252.6 L 500.0 249.2 L 504.0 246.1 L 508.0 243.4 L 512.0 241.2 L 516.0 239.6 L 520.0 238.5 L 524.0 238.0 L 528.0 238.2 L 532.0 238.9 L 536.0 240.3 L 540.0 242.2 L 544.0 244.7 L 548.0 247.6 L 552.0 250.8 L 556.0 254.4 L 560.0 258.2 L 564.0 262.0 L 568.0 265.8 L 572.0 269.6 L 576.0 273.2 L 580.0 276.4 L 584.0 279.3 L 588.0 281.8 L 592.0 283.7 L 596.0 285.1 L 600.0 285.8 L 604.0 286.0 L 608.0 285.5 L 612.0 284.4 L 616.0 282.8 L 620.0 280.6 L 624.0 277.9 L 628.0 274.8 L 632.0 271.4 L 636.0 267.7 L 640.0 263.9 L 644.0 260.1 L 648.0 256.3 L 652.0 252.6 L 656.0 249.2 L 660.0 246.1 L 664.0 243.4 L 668.0 241.2 L 672.0 239.6 L 676.0 238.5 L 680.0 238.0 L 684.0 238.2 L 688.0 238.9 L 692.0 240.3 L 696.0 242.2 L 700.0 244.7 L 704.0 247.6 L 708.0 250.8 L 712.0 254.4 L 716.0 258.2 L 720.0 262.0 L 724.0 265.8 L 728.0 269.6 L 732.0 273.2 L 736.0 276.4 L 740.0 279.3 L 744.0 281.8 L 748.0 283.7 L 752.0 285.1 L 756.0 285.8 L 760.0 286.0 L 764.0 285.5 L 768.0 284.4 L 772.0 282.8 L 776.0 280.6 L 780.0 277.9 L 784.0 274.8 L 788.0 271.4 L 792.0 267.7 L 796.0 263.9 L 800.0 260.1 L 804.0 256.3 L 808.0 252.6 L 812.0 249.2 L 816.0 246.1 L 820.0 243.4 L 824.0 241.2 L 828.0 239.6 L 832.0 238.5 L 836.0 238.0 L 840.0 238.2 L 844.0 238.9 L 848.0 240.3 L 852.0 242.2 L 856.0 244.7 L 860.0 247.6 L 864.0 250.8 L 868.0 254.4 L 872.0 258.2 L 876.0 262.0 L 880.0 265.8 L 884.0 269.6 L 888.0 273.2 L 892.0 276.4 L 896.0 279.3 L 900.0 281.8 L 904.0 283.7 L 908.0 285.1 L 912.0 285.8 L 916.0 286.0 L 920.0 285.5 L 924.0 284.4 L 928.0 282.8 L 932.0 280.6 L 936.0 277.9 L 940.0 274.8 L 944.0 271.4 L 948.0 267.7 L 952.0 263.9 L 956.0 260.1 L 960.0 256.3 L 964.0 252.6 L 968.0 249.2 L 972.0 246.1 L 976.0 243.4 L 980.0 241.2 L 984.0 239.6 L 988.0 238.5 L 992.0 238.0 L 996.0 238.2 L 1000.0 238.9 L 1004.0 240.3 L 1008.0 242.2 L 1012.0 244.7 L 1016.0 247.6 L 1020.0 250.8 L 1024.0 254.4 L 1028.0 258.2 L 1032.0 262.0 L 1036.0 265.8 L 1040.0 269.6 L 1044.0 273.2 L 1048.0 276.4 L 1052.0 279.3 L 1056.0 281.8 L 1060.0 283.7 L 1064.0 285.1 L 1068.0 285.8 L 1072.0 286.0 L 1076.0 285.5 L 1080.0 284.4 L 1084.0 282.8 L 1088.0 280.6 L 1092.0 277.9 L 1096.0 274.8 L 1100.0 271.4 L 1104.0 267.7" fill="none" stroke="#2b3b52" stroke-opacity="0.55" stroke-width="1.4"/>
<g stroke-linecap="round">
<line x1="104.0" y1="269.6" x2="104.0" y2="254.4" stroke="#7dd3fc" stroke-opacity="0.229" stroke-width="2"/>
<line x1="123.0" y1="283.3" x2="123.0" y2="240.7" stroke="#7dd3fc" stroke-opacity="0.447" stroke-width="2"/>
<line x1="142.0" y1="285.1" x2="142.0" y2="238.9" stroke="#7dd3fc" stroke-opacity="0.457" stroke-width="2"/>
<line x1="161.0" y1="274.0" x2="161.0" y2="250.0" stroke="#7dd3fc" stroke-opacity="0.27" stroke-width="2"/>
<line x1="180.0" y1="256.3" x2="180.0" y2="267.7" stroke="#7dd3fc" stroke-opacity="0.167" stroke-width="2"/>
<line x1="199.0" y1="241.7" x2="199.0" y2="282.3" stroke="#7dd3fc" stroke-opacity="0.362" stroke-width="2"/>
<line x1="218.0" y1="238.5" x2="218.0" y2="285.5" stroke="#7dd3fc" stroke-opacity="0.388" stroke-width="2"/>
<line x1="237.0" y1="248.4" x2="237.0" y2="275.6" stroke="#7dd3fc" stroke-opacity="0.244" stroke-width="2"/>
<line x1="256.0" y1="265.8" x2="256.0" y2="258.2" stroke="#7dd3fc" stroke-opacity="0.114" stroke-width="2"/>
<line x1="275.0" y1="281.2" x2="275.0" y2="242.8" stroke="#7dd3fc" stroke-opacity="0.281" stroke-width="2"/>
<line x1="294.0" y1="285.8" x2="294.0" y2="238.2" stroke="#7dd3fc" stroke-opacity="0.314" stroke-width="2"/>
<line x1="313.0" y1="277.2" x2="313.0" y2="246.8" stroke="#7dd3fc" stroke-opacity="0.208" stroke-width="2"/>
<line x1="332.0" y1="260.1" x2="332.0" y2="263.9" stroke="#7dd3fc" stroke-opacity="0.071" stroke-width="2"/>
<line x1="351.0" y1="244.0" x2="351.0" y2="280.0" stroke="#7dd3fc" stroke-opacity="0.205" stroke-width="2"/>
<line x1="370.0" y1="238.0" x2="370.0" y2="286.0" stroke="#7dd3fc" stroke-opacity="0.237" stroke-width="2"/>
<line x1="389.0" y1="245.4" x2="389.0" y2="278.6" stroke="#7dd3fc" stroke-opacity="0.164" stroke-width="2"/>
<line x1="408.0" y1="262.0" x2="408.0" y2="262.0" stroke="#7dd3fc" stroke-opacity="0.038" stroke-width="2"/>
<line x1="427.0" y1="278.6" x2="427.0" y2="245.4" stroke="#7dd3fc" stroke-opacity="0.134" stroke-width="2"/>
<line x1="446.0" y1="286.0" x2="446.0" y2="238.0" stroke="#7dd3fc" stroke-opacity="0.159" stroke-width="2"/>
<line x1="465.0" y1="280.0" x2="465.0" y2="244.0" stroke="#7dd3fc" stroke-opacity="0.111" stroke-width="2"/>
<line x1="484.0" y1="263.9" x2="484.0" y2="260.1" stroke="#7dd3fc" stroke-opacity="0.031" stroke-width="2"/>
<line x1="503.0" y1="246.8" x2="503.0" y2="277.2" stroke="#7dd3fc" stroke-opacity="0.07" stroke-width="2"/>
<line x1="522.0" y1="238.2" x2="522.0" y2="285.8" stroke="#7dd3fc" stroke-opacity="0.08" stroke-width="2"/>
<line x1="541.0" y1="242.8" x2="541.0" y2="281.2" stroke="#7dd3fc" stroke-opacity="0.051" stroke-width="2"/>
<line x1="560.0" y1="258.2" x2="560.0" y2="265.8" stroke="#7dd3fc" stroke-opacity="0.013" stroke-width="2"/>
<line x1="579.0" y1="275.6" x2="579.0" y2="248.4" stroke="#7dd3fc" stroke-opacity="0.014" stroke-width="2"/>
</g>
<path d="M 96.0 262.0 L 100.0 258.2 L 104.0 254.4 L 108.0 250.8 L 112.0 247.6 L 116.0 244.7 L 120.0 242.2 L 124.0 240.3 L 128.0 238.9 L 132.0 238.2 L 136.0 238.0 L 140.0 238.5 L 144.0 239.6 L 148.0 241.2 L 152.0 243.4 L 156.0 246.1 L 160.0 249.2 L 164.0 252.6 L 168.0 256.3 L 172.0 260.1 L 176.0 263.9 L 180.0 267.7 L 184.0 271.4 L 188.0 274.8 L 192.0 277.9 L 196.0 280.6 L 200.0 282.8 L 204.0 284.4 L 208.0 285.5 L 212.0 286.0 L 216.0 285.8 L 220.0 285.1 L 224.0 283.7 L 228.0 281.8 L 232.0 279.3 L 236.0 276.4 L 240.0 273.2 L 244.0 269.6 L 248.0 265.8 L 252.0 262.0 L 256.0 258.2 L 260.0 254.4 L 264.0 250.8 L 268.0 247.6 L 272.0 244.7 L 276.0 242.2 L 280.0 240.3 L 284.0 238.9 L 288.0 238.2 L 292.0 238.0 L 296.0 238.5 L 300.0 239.6 L 304.0 241.2 L 308.0 243.4 L 312.0 246.1 L 316.0 249.2 L 320.0 252.6 L 324.0 256.3 L 328.0 260.1 L 332.0 263.9 L 336.0 267.7 L 340.0 271.4 L 344.0 274.8 L 348.0 277.9 L 352.0 280.6 L 356.0 282.8 L 360.0 284.4 L 364.0 285.5 L 368.0 286.0 L 372.0 285.8 L 376.0 285.1 L 380.0 283.7 L 384.0 281.8 L 388.0 279.3 L 392.0 276.4 L 396.0 273.2 L 400.0 269.6 L 404.0 265.8 L 408.0 262.0 L 412.0 258.2 L 416.0 254.4 L 420.0 250.8 L 424.0 247.6 L 428.0 244.7 L 432.0 242.2 L 436.0 240.3 L 440.0 238.9 L 444.0 238.2 L 448.0 238.0 L 452.0 238.5 L 456.0 239.6 L 460.0 241.2 L 464.0 243.4 L 468.0 246.1 L 472.0 249.2 L 476.0 252.6 L 480.0 256.3 L 484.0 260.1 L 488.0 263.9 L 492.0 267.7 L 496.0 271.4 L 500.0 274.8 L 504.0 277.9 L 508.0 280.6 L 512.0 282.8 L 516.0 284.4 L 520.0 285.5 L 524.0 286.0 L 528.0 285.8 L 532.0 285.1 L 536.0 283.7 L 540.0 281.8 L 544.0 279.3 L 548.0 276.4 L 552.0 273.2 L 556.0 269.6 L 560.0 265.8 L 564.0 262.0 L 568.0 258.2 L 572.0 254.4 L 576.0 250.8 L 580.0 247.6 L 584.0 244.7 L 588.0 242.2 L 592.0 240.3 L 596.0 238.9 L 600.0 238.2" fill="none" stroke="url(#s2)" stroke-width="3" stroke-linecap="round" opacity="0.92"/>
<path d="M 96.0 262.0 L 100.0 265.8 L 104.0 269.6 L 108.0 273.2 L 112.0 276.4 L 116.0 279.3 L 120.0 281.8 L 124.0 283.7 L 128.0 285.1 L 132.0 285.8 L 136.0 286.0 L 140.0 285.5 L 144.0 284.4 L 148.0 282.8 L 152.0 280.6 L 156.0 277.9 L 160.0 274.8 L 164.0 271.4 L 168.0 267.7 L 172.0 263.9 L 176.0 260.1 L 180.0 256.3 L 184.0 252.6 L 188.0 249.2 L 192.0 246.1 L 196.0 243.4 L 200.0 241.2 L 204.0 239.6 L 208.0 238.5 L 212.0 238.0 L 216.0 238.2 L 220.0 238.9 L 224.0 240.3 L 228.0 242.2 L 232.0 244.7 L 236.0 247.6 L 240.0 250.8 L 244.0 254.4 L 248.0 258.2 L 252.0 262.0 L 256.0 265.8 L 260.0 269.6 L 264.0 273.2 L 268.0 276.4 L 272.0 279.3 L 276.0 281.8 L 280.0 283.7 L 284.0 285.1 L 288.0 285.8 L 292.0 286.0 L 296.0 285.5 L 300.0 284.4 L 304.0 282.8 L 308.0 280.6 L 312.0 277.9 L 316.0 274.8 L 320.0 271.4 L 324.0 267.7 L 328.0 263.9 L 332.0 260.1 L 336.0 256.3 L 340.0 252.6 L 344.0 249.2 L 348.0 246.1 L 352.0 243.4 L 356.0 241.2 L 360.0 239.6 L 364.0 238.5 L 368.0 238.0 L 372.0 238.2 L 376.0 238.9 L 380.0 240.3 L 384.0 242.2 L 388.0 244.7 L 392.0 247.6 L 396.0 250.8 L 400.0 254.4 L 404.0 258.2 L 408.0 262.0 L 412.0 265.8 L 416.0 269.6 L 420.0 273.2 L 424.0 276.4 L 428.0 279.3 L 432.0 281.8 L 436.0 283.7 L 440.0 285.1 L 444.0 285.8 L 448.0 286.0 L 452.0 285.5 L 456.0 284.4 L 460.0 282.8 L 464.0 280.6 L 468.0 277.9 L 472.0 274.8 L 476.0 271.4 L 480.0 267.7 L 484.0 263.9 L 488.0 260.1 L 492.0 256.3 L 496.0 252.6 L 500.0 249.2 L 504.0 246.1 L 508.0 243.4 L 512.0 241.2 L 516.0 239.6 L 520.0 238.5 L 524.0 238.0 L 528.0 238.2 L 532.0 238.9 L 536.0 240.3 L 540.0 242.2 L 544.0 244.7 L 548.0 247.6 L 552.0 250.8 L 556.0 254.4 L 560.0 258.2 L 564.0 262.0 L 568.0 265.8 L 572.0 269.6 L 576.0 273.2 L 580.0 276.4 L 584.0 279.3 L 588.0 281.8 L 592.0 283.7 L 596.0 285.1 L 600.0 285.8 L 604.0 286.0 L 608.0 285.5 L 612.0 284.4 L 616.0 282.8 L 620.0 280.6 L 624.0 277.9 L 628.0 274.8 L 632.0 271.4 L 636.0 267.7 L 640.0 263.9 L 644.0 260.1 L 648.0 256.3 L 652.0 252.6 L 656.0 249.2 L 660.0 246.1 L 664.0 243.4 L 668.0 241.2 L 672.0 239.6 L 676.0 238.5 L 680.0 238.0 L 684.0 238.2 L 688.0 238.9 L 692.0 240.3 L 696.0 242.2 L 700.0 244.7 L 704.0 247.6 L 708.0 250.8 L 712.0 254.4 L 716.0 258.2 L 720.0 262.0 L 724.0 265.8 L 728.0 269.6 L 732.0 273.2 L 736.0 276.4 L 740.0 279.3 L 744.0 281.8 L 748.0 283.7 L 752.0 285.1 L 756.0 285.8 L 760.0 286.0 L 764.0 285.5 L 768.0 284.4 L 772.0 282.8 L 776.0 280.6 L 780.0 277.9 L 784.0 274.8 L 788.0 271.4 L 792.0 267.7 L 796.0 263.9 L 800.0 260.1 L 804.0 256.3 L 808.0 252.6 L 812.0 249.2 L 816.0 246.1 L 820.0 243.4 L 824.0 241.2 L 828.0 239.6 L 832.0 238.5 L 836.0 238.0 L 840.0 238.2 L 844.0 238.9 L 848.0 240.3 L 852.0 242.2 L 856.0 244.7 L 860.0 247.6 L 864.0 250.8 L 868.0 254.4 L 872.0 258.2 L 876.0 262.0 L 880.0 265.8 L 884.0 269.6 L 888.0 273.2 L 892.0 276.4 L 896.0 279.3 L 900.0 281.8 L 904.0 283.7 L 908.0 285.1 L 912.0 285.8 L 916.0 286.0 L 920.0 285.5 L 924.0 284.4 L 928.0 282.8 L 932.0 280.6 L 936.0 277.9 L 940.0 274.8 L 944.0 271.4 L 948.0 267.7 L 952.0 263.9 L 956.0 260.1 L 960.0 256.3 L 964.0 252.6 L 968.0 249.2 L 972.0 246.1 L 976.0 243.4 L 980.0 241.2 L 984.0 239.6 L 988.0 238.5 L 992.0 238.0 L 996.0 238.2 L 1000.0 238.9 L 1004.0 240.3 L 1008.0 242.2 L 1012.0 244.7 L 1016.0 247.6 L 1020.0 250.8 L 1024.0 254.4 L 1028.0 258.2 L 1032.0 262.0 L 1036.0 265.8 L 1040.0 269.6 L 1044.0 273.2 L 1048.0 276.4 L 1052.0 279.3 L 1056.0 281.8 L 1060.0 283.7 L 1064.0 285.1 L 1068.0 285.8 L 1072.0 286.0 L 1076.0 285.5 L 1080.0 284.4 L 1084.0 282.8 L 1088.0 280.6 L 1092.0 277.9 L 1096.0 274.8 L 1100.0 271.4 L 1104.0 267.7" fill="none" stroke="url(#s1)" stroke-width="3.2" stroke-linecap="round"/>
<g>
<circle cx="96.0" cy="262.0" r="2.4" fill="#5eead4" opacity="0.9"/>
<circle cx="96.0" cy="262.0" r="2.4" fill="#5eead4" opacity="0.9"/>
<circle cx="115.0" cy="278.6" r="2.4" fill="#5eead4" opacity="0.866"/>
<circle cx="115.0" cy="245.4" r="2.4" fill="#5eead4" opacity="0.866"/>
<circle cx="134.0" cy="286.0" r="2.4" fill="#5eead4" opacity="0.832"/>
<circle cx="134.0" cy="238.0" r="2.4" fill="#5eead4" opacity="0.832"/>
<circle cx="153.0" cy="280.0" r="2.4" fill="#5eead4" opacity="0.798"/>
<circle cx="153.0" cy="244.0" r="2.4" fill="#5eead4" opacity="0.798"/>
<circle cx="172.0" cy="263.9" r="2.4" fill="#5eead4" opacity="0.764"/>
<circle cx="172.0" cy="260.1" r="2.4" fill="#5eead4" opacity="0.764"/>
<circle cx="191.0" cy="246.8" r="2.4" fill="#5eead4" opacity="0.73"/>
<circle cx="191.0" cy="277.2" r="2.4" fill="#5eead4" opacity="0.73"/>
<circle cx="210.0" cy="238.2" r="2.4" fill="#5eead4" opacity="0.696"/>
<circle cx="210.0" cy="285.8" r="2.4" fill="#5eead4" opacity="0.696"/>
<circle cx="229.0" cy="242.8" r="2.4" fill="#5eead4" opacity="0.663"/>
<circle cx="229.0" cy="281.2" r="2.4" fill="#5eead4" opacity="0.663"/>
<circle cx="248.0" cy="258.2" r="2.4" fill="#5eead4" opacity="0.629"/>
<circle cx="248.0" cy="265.8" r="2.4" fill="#5eead4" opacity="0.629"/>
<circle cx="267.0" cy="275.6" r="2.4" fill="#5eead4" opacity="0.595"/>
<circle cx="267.0" cy="248.4" r="2.4" fill="#5eead4" opacity="0.595"/>
<circle cx="286.0" cy="285.5" r="2.4" fill="#5eead4" opacity="0.561"/>
<circle cx="286.0" cy="238.5" r="2.4" fill="#5eead4" opacity="0.561"/>
<circle cx="305.0" cy="282.3" r="2.4" fill="#5eead4" opacity="0.527"/>
<circle cx="305.0" cy="241.7" r="2.4" fill="#5eead4" opacity="0.527"/>
<circle cx="324.0" cy="267.7" r="2.4" fill="#5eead4" opacity="0.493"/>
<circle cx="324.0" cy="256.3" r="2.4" fill="#5eead4" opacity="0.493"/>
<circle cx="343.0" cy="250.0" r="2.4" fill="#5eead4" opacity="0.459"/>
<circle cx="343.0" cy="274.0" r="2.4" fill="#5eead4" opacity="0.459"/>
<circle cx="362.0" cy="238.9" r="2.4" fill="#5eead4" opacity="0.425"/>
<circle cx="362.0" cy="285.1" r="2.4" fill="#5eead4" opacity="0.425"/>
<circle cx="381.0" cy="240.7" r="2.4" fill="#5eead4" opacity="0.391"/>
<circle cx="381.0" cy="283.3" r="2.4" fill="#5eead4" opacity="0.391"/>
<circle cx="400.0" cy="254.4" r="2.4" fill="#5eead4" opacity="0.357"/>
<circle cx="400.0" cy="269.6" r="2.4" fill="#5eead4" opacity="0.357"/>
<circle cx="419.0" cy="272.3" r="2.4" fill="#5eead4" opacity="0.323"/>
<circle cx="419.0" cy="251.7" r="2.4" fill="#5eead4" opacity="0.323"/>
<circle cx="438.0" cy="284.4" r="2.4" fill="#5eead4" opacity="0.289"/>
<circle cx="438.0" cy="239.6" r="2.4" fill="#5eead4" opacity="0.289"/>
<circle cx="457.0" cy="284.1" r="2.4" fill="#5eead4" opacity="0.255"/>
<circle cx="457.0" cy="239.9" r="2.4" fill="#5eead4" opacity="0.255"/>
<circle cx="476.0" cy="271.4" r="2.4" fill="#5eead4" opacity="0.221"/>
<circle cx="476.0" cy="252.6" r="2.4" fill="#5eead4" opacity="0.221"/>
<circle cx="495.0" cy="253.5" r="2.4" fill="#5eead4" opacity="0.188"/>
<circle cx="495.0" cy="270.5" r="2.4" fill="#5eead4" opacity="0.188"/>
<circle cx="514.0" cy="240.3" r="2.4" fill="#5eead4" opacity="0.154"/>
<circle cx="514.0" cy="283.7" r="2.4" fill="#5eead4" opacity="0.154"/>
<circle cx="533.0" cy="239.2" r="2.4" fill="#5eead4" opacity="0.12"/>
<circle cx="533.0" cy="284.8" r="2.4" fill="#5eead4" opacity="0.12"/>
<circle cx="552.0" cy="250.8" r="2.4" fill="#5eead4" opacity="0.086"/>
<circle cx="552.0" cy="273.2" r="2.4" fill="#5eead4" opacity="0.086"/>
<circle cx="571.0" cy="268.7" r="2.4" fill="#5eead4" opacity="0.052"/>
<circle cx="571.0" cy="255.3" r="2.4" fill="#5eead4" opacity="0.052"/>
<circle cx="590.0" cy="282.8" r="2.4" fill="#5eead4" opacity="0.018"/>
<circle cx="590.0" cy="241.2" r="2.4" fill="#5eead4" opacity="0.018"/>
</g>
<circle cx="574.0" cy="271.4" r="3.4" fill="#5eead4" opacity="0.85"/>
<circle cx="600.0" cy="262.0" r="3.4" fill="#5eead4" opacity="0.85"/>
<circle cx="624.0" cy="262.0" r="3.4" fill="#5eead4" opacity="0.85"/>
<g>
<rect x="606.8" y="258.9" width="6.4" height="6.1" rx="3.2" fill="url(#bar)" opacity="0.92"><animate attributeName="opacity" values="0.55;1;0.55" dur="2.6s" begin="0.0s" repeatCount="indefinite"/><animate attributeName="height" values="6.1;4.0;6.1" dur="2.6s" begin="0.0s" repeatCount="indefinite"/><animate attributeName="y" values="258.9;260.0;258.9" dur="2.6s" begin="0.0s" repeatCount="indefinite"/></rect>
<rect x="624.3" y="257.8" width="6.4" height="8.4" rx="3.2" fill="url(#bar)" opacity="0.92"><animate attributeName="opacity" values="0.55;1;0.55" dur="2.6s" begin="0.18s" repeatCount="indefinite"/><animate attributeName="height" values="8.4;5.2;8.4" dur="2.6s" begin="0.18s" repeatCount="indefinite"/><animate attributeName="y" values="257.8;259.4;257.8" dur="2.6s" begin="0.18s" repeatCount="indefinite"/></rect>
<rect x="641.8" y="259.8" width="6.4" height="4.5" rx="3.2" fill="url(#bar)" opacity="0.92"><animate attributeName="opacity" values="0.55;1;0.55" dur="2.6s" begin="0.36s" repeatCount="indefinite"/><animate attributeName="height" values="4.5;4.0;4.5" dur="2.6s" begin="0.36s" repeatCount="indefinite"/><animate attributeName="y" values="259.8;260.0;259.8" dur="2.6s" begin="0.36s" repeatCount="indefinite"/></rect>
<rect x="659.3" y="258.6" width="6.4" height="6.9" rx="3.2" fill="url(#bar)" opacity="0.92"><animate attributeName="opacity" values="0.55;1;0.55" dur="2.6s" begin="0.54s" repeatCount="indefinite"/><animate attributeName="height" values="6.9;4.3;6.9" dur="2.6s" begin="0.54s" repeatCount="indefinite"/><animate attributeName="y" values="258.6;259.9;258.6" dur="2.6s" begin="0.54s" repeatCount="indefinite"/></rect>
<rect x="676.8" y="257.1" width="6.4" height="9.7" rx="3.2" fill="url(#bar)" opacity="0.92"><animate attributeName="opacity" values="0.55;1;0.55" dur="2.6s" begin="0.72s" repeatCount="indefinite"/><animate attributeName="height" values="9.7;6.0;9.7" dur="2.6s" begin="0.72s" repeatCount="indefinite"/><animate attributeName="y" values="257.1;259.0;257.1" dur="2.6s" begin="0.72s" repeatCount="indefinite"/></rect>
<rect x="694.3" y="258.3" width="6.4" height="7.4" rx="3.2" fill="url(#bar)" opacity="0.92"><animate attributeName="opacity" values="0.55;1;0.55" dur="2.6s" begin="0.9s" repeatCount="indefinite"/><animate attributeName="height" values="7.4;4.6;7.4" dur="2.6s" begin="0.9s" repeatCount="indefinite"/><animate attributeName="y" values="258.3;259.7;258.3" dur="2.6s" begin="0.9s" repeatCount="indefinite"/></rect>
<rect x="711.8" y="258.7" width="6.4" height="6.6" rx="3.2" fill="url(#bar)" opacity="0.92"><animate attributeName="opacity" values="0.55;1;0.55" dur="2.6s" begin="1.08s" repeatCount="indefinite"/><animate attributeName="height" values="6.6;4.1;6.6" dur="2.6s" begin="1.08s" repeatCount="indefinite"/><animate attributeName="y" values="258.7;260.0;258.7" dur="2.6s" begin="1.08s" repeatCount="indefinite"/></rect>
<rect x="729.3" y="256.6" width="6.4" height="10.8" rx="3.2" fill="url(#bar)" opacity="0.92"><animate attributeName="opacity" values="0.55;1;0.55" dur="2.6s" begin="0.0s" repeatCount="indefinite"/><animate attributeName="height" values="10.8;6.7;10.8" dur="2.6s" begin="0.0s" repeatCount="indefinite"/><animate attributeName="y" values="256.6;258.7;256.6" dur="2.6s" begin="0.0s" repeatCount="indefinite"/></rect>
<rect x="746.8" y="252.2" width="6.4" height="19.5" rx="3.2" fill="url(#bar)" opacity="0.92"><animate attributeName="opacity" values="0.55;1;0.55" dur="2.6s" begin="0.18s" repeatCount="indefinite"/><animate attributeName="height" values="19.5;12.1;19.5" dur="2.6s" begin="0.18s" repeatCount="indefinite"/><animate attributeName="y" values="252.2;256.0;252.2" dur="2.6s" begin="0.18s" repeatCount="indefinite"/></rect>
<rect x="764.3" y="256.1" width="6.4" height="11.8" rx="3.2" fill="url(#bar)" opacity="0.92"><animate attributeName="opacity" values="0.55;1;0.55" dur="2.6s" begin="0.36s" repeatCount="indefinite"/><animate attributeName="height" values="11.8;7.3;11.8" dur="2.6s" begin="0.36s" repeatCount="indefinite"/><animate attributeName="y" values="256.1;258.3;256.1" dur="2.6s" begin="0.36s" repeatCount="indefinite"/></rect>
<rect x="781.8" y="258.4" width="6.4" height="7.3" rx="3.2" fill="url(#bar)" opacity="0.92"><animate attributeName="opacity" values="0.55;1;0.55" dur="2.6s" begin="0.54s" repeatCount="indefinite"/><animate attributeName="height" values="7.3;4.5;7.3" dur="2.6s" begin="0.54s" repeatCount="indefinite"/><animate attributeName="y" values="258.4;259.7;258.4" dur="2.6s" begin="0.54s" repeatCount="indefinite"/></rect>
<rect x="799.3" y="256.1" width="6.4" height="11.9" rx="3.2" fill="url(#bar)" opacity="0.92"><animate attributeName="opacity" values="0.55;1;0.55" dur="2.6s" begin="0.72s" repeatCount="indefinite"/><animate attributeName="height" values="11.9;7.4;11.9" dur="2.6s" begin="0.72s" repeatCount="indefinite"/><animate attributeName="y" values="256.1;258.3;256.1" dur="2.6s" begin="0.72s" repeatCount="indefinite"/></rect>
<rect x="816.8" y="257.9" width="6.4" height="8.3" rx="3.2" fill="url(#bar)" opacity="0.92"><animate attributeName="opacity" values="0.55;1;0.55" dur="2.6s" begin="0.9s" repeatCount="indefinite"/><animate attributeName="height" values="8.3;5.1;8.3" dur="2.6s" begin="0.9s" repeatCount="indefinite"/><animate attributeName="y" values="257.9;259.4;257.9" dur="2.6s" begin="0.9s" repeatCount="indefinite"/></rect>
<rect x="834.3" y="254.5" width="6.4" height="15.0" rx="3.2" fill="url(#bar)" opacity="0.92"><animate attributeName="opacity" values="0.55;1;0.55" dur="2.6s" begin="1.08s" repeatCount="indefinite"/><animate attributeName="height" values="15.0;9.3;15.0" dur="2.6s" begin="1.08s" repeatCount="indefinite"/><animate attributeName="y" values="254.5;257.4;254.5" dur="2.6s" begin="1.08s" repeatCount="indefinite"/></rect>
<rect x="851.8" y="252.4" width="6.4" height="19.1" rx="3.2" fill="url(#bar)" opacity="0.92"><animate attributeName="opacity" values="0.55;1;0.55" dur="2.6s" begin="0.0s" repeatCount="indefinite"/><animate attributeName="height" values="19.1;11.8;19.1" dur="2.6s" begin="0.0s" repeatCount="indefinite"/><animate attributeName="y" values="252.4;256.1;252.4" dur="2.6s" begin="0.0s" repeatCount="indefinite"/></rect>
<rect x="869.3" y="246.5" width="6.4" height="31.0" rx="3.2" fill="url(#bar)" opacity="0.92"><animate attributeName="opacity" values="0.55;1;0.55" dur="2.6s" begin="0.18s" repeatCount="indefinite"/><animate attributeName="height" values="31.0;19.2;31.0" dur="2.6s" begin="0.18s" repeatCount="indefinite"/><animate attributeName="y" values="246.5;252.4;246.5" dur="2.6s" begin="0.18s" repeatCount="indefinite"/></rect>
<rect x="886.8" y="251.1" width="6.4" height="21.9" rx="3.2" fill="url(#bar)" opacity="0.92"><animate attributeName="opacity" values="0.55;1;0.55" dur="2.6s" begin="0.36s" repeatCount="indefinite"/><animate attributeName="height" values="21.9;13.6;21.9" dur="2.6s" begin="0.36s" repeatCount="indefinite"/><animate attributeName="y" values="251.1;255.2;251.1" dur="2.6s" begin="0.36s" repeatCount="indefinite"/></rect>
<rect x="904.3" y="250.5" width="6.4" height="23.0" rx="3.2" fill="url(#bar)" opacity="0.92"><animate attributeName="opacity" values="0.55;1;0.55" dur="2.6s" begin="0.54s" repeatCount="indefinite"/><animate attributeName="height" values="23.0;14.3;23.0" dur="2.6s" begin="0.54s" repeatCount="indefinite"/><animate attributeName="y" values="250.5;254.9;250.5" dur="2.6s" begin="0.54s" repeatCount="indefinite"/></rect>
<rect x="921.8" y="251.8" width="6.4" height="20.4" rx="3.2" fill="url(#bar)" opacity="0.92"><animate attributeName="opacity" values="0.55;1;0.55" dur="2.6s" begin="0.72s" repeatCount="indefinite"/><animate attributeName="height" values="20.4;12.6;20.4" dur="2.6s" begin="0.72s" repeatCount="indefinite"/><animate attributeName="y" values="251.8;255.7;251.8" dur="2.6s" begin="0.72s" repeatCount="indefinite"/></rect>
<rect x="939.3" y="253.6" width="6.4" height="16.9" rx="3.2" fill="url(#bar)" opacity="0.92"><animate attributeName="opacity" values="0.55;1;0.55" dur="2.6s" begin="0.9s" repeatCount="indefinite"/><animate attributeName="height" values="16.9;10.5;16.9" dur="2.6s" begin="0.9s" repeatCount="indefinite"/><animate attributeName="y" values="253.6;256.8;253.6" dur="2.6s" begin="0.9s" repeatCount="indefinite"/></rect>
<rect x="956.8" y="248.3" width="6.4" height="27.4" rx="3.2" fill="url(#bar)" opacity="0.92"><animate attributeName="opacity" values="0.55;1;0.55" dur="2.6s" begin="1.08s" repeatCount="indefinite"/><animate attributeName="height" values="27.4;17.0;27.4" dur="2.6s" begin="1.08s" repeatCount="indefinite"/><animate attributeName="y" values="248.3;253.5;248.3" dur="2.6s" begin="1.08s" repeatCount="indefinite"/></rect>
<rect x="974.3" y="249.3" width="6.4" height="25.4" rx="3.2" fill="url(#bar)" opacity="0.92"><animate attributeName="opacity" values="0.55;1;0.55" dur="2.6s" begin="0.0s" repeatCount="indefinite"/><animate attributeName="height" values="25.4;15.7;25.4" dur="2.6s" begin="0.0s" repeatCount="indefinite"/><animate attributeName="y" values="249.3;254.1;249.3" dur="2.6s" begin="0.0s" repeatCount="indefinite"/></rect>
<rect x="991.8" y="248.2" width="6.4" height="27.5" rx="3.2" fill="url(#bar)" opacity="0.92"><animate attributeName="opacity" values="0.55;1;0.55" dur="2.6s" begin="0.18s" repeatCount="indefinite"/><animate attributeName="height" values="27.5;17.1;27.5" dur="2.6s" begin="0.18s" repeatCount="indefinite"/><animate attributeName="y" values="248.2;253.5;248.2" dur="2.6s" begin="0.18s" repeatCount="indefinite"/></rect>
<rect x="1009.3" y="250.2" width="6.4" height="23.6" rx="3.2" fill="url(#bar)" opacity="0.92"><animate attributeName="opacity" values="0.55;1;0.55" dur="2.6s" begin="0.36s" repeatCount="indefinite"/><animate attributeName="height" values="23.6;14.6;23.6" dur="2.6s" begin="0.36s" repeatCount="indefinite"/><animate attributeName="y" values="250.2;254.7;250.2" dur="2.6s" begin="0.36s" repeatCount="indefinite"/></rect>
<rect x="1026.8" y="243.5" width="6.4" height="37.0" rx="3.2" fill="url(#bar)" opacity="0.92"><animate attributeName="opacity" values="0.55;1;0.55" dur="2.6s" begin="0.54s" repeatCount="indefinite"/><animate attributeName="height" values="37.0;22.9;37.0" dur="2.6s" begin="0.54s" repeatCount="indefinite"/><animate attributeName="y" values="243.5;250.5;243.5" dur="2.6s" begin="0.54s" repeatCount="indefinite"/></rect>
<rect x="1044.3" y="239.8" width="6.4" height="44.4" rx="3.2" fill="url(#bar)" opacity="0.92"><animate attributeName="opacity" values="0.55;1;0.55" dur="2.6s" begin="0.72s" repeatCount="indefinite"/><animate attributeName="height" values="44.4;27.5;44.4" dur="2.6s" begin="0.72s" repeatCount="indefinite"/><animate attributeName="y" values="239.8;248.2;239.8" dur="2.6s" begin="0.72s" repeatCount="indefinite"/></rect>
<rect x="1061.8" y="250.8" width="6.4" height="22.4" rx="3.2" fill="url(#bar)" opacity="0.92"><animate attributeName="opacity" values="0.55;1;0.55" dur="2.6s" begin="0.9s" repeatCount="indefinite"/><animate attributeName="height" values="22.4;13.9;22.4" dur="2.6s" begin="0.9s" repeatCount="indefinite"/><animate attributeName="y" values="250.8;255.1;250.8" dur="2.6s" begin="0.9s" repeatCount="indefinite"/></rect>
<rect x="1079.3" y="250.5" width="6.4" height="23.0" rx="3.2" fill="url(#bar)" opacity="0.92"><animate attributeName="opacity" values="0.55;1;0.55" dur="2.6s" begin="1.08s" repeatCount="indefinite"/><animate attributeName="height" values="23.0;14.3;23.0" dur="2.6s" begin="1.08s" repeatCount="indefinite"/><animate attributeName="y" values="250.5;254.9;250.5" dur="2.6s" begin="1.08s" repeatCount="indefinite"/></rect>
<rect x="1096.8" y="250.8" width="6.4" height="22.3" rx="3.2" fill="url(#bar)" opacity="0.92"><animate attributeName="opacity" values="0.55;1;0.55" dur="2.6s" begin="0.0s" repeatCount="indefinite"/><animate attributeName="height" values="22.3;13.8;22.3" dur="2.6s" begin="0.0s" repeatCount="indefinite"/><animate attributeName="y" values="250.8;255.1;250.8" dur="2.6s" begin="0.0s" repeatCount="indefinite"/></rect>
</g>
<circle r="5" fill="#e0fbff" filter="url(#soft)" opacity="0.9"><animateMotion dur="7s" repeatCount="indefinite" rotate="0"><mpath xlink:href="#motion1"/></animateMotion></circle>
<circle r="2.4" fill="#e0fbff"><animateMotion dur="7s" repeatCount="indefinite" rotate="0"><mpath xlink:href="#motion1"/></animateMotion></circle>
<text x="600.0" y="118" text-anchor="middle" font-family="'Segoe UI', -apple-system, BlinkMacSystemFont, Helvetica, Arial, sans-serif" font-size="58" font-weight="700" fill="#eaf2ff" letter-spacing="0.5">Andres del Castillo</text>
<rect x="530.0" y="140" width="140" height="3.5" rx="1.75" fill="url(#ul)"/>
<text x="600.0" y="178" text-anchor="middle" font-family="'SFMono-Regular', ui-monospace, 'JetBrains Mono', Menlo, Consolas, monospace" font-size="17" font-weight="500" fill="#7fd6f7" letter-spacing="3.4">POPULATION&#160;GENETICS&#160;&#160;·&#160;&#160;SCIENTIFIC&#160;SOFTWARE&#160;&#160;·&#160;&#160;MACHINE&#160;LEARNING</text>
</svg>